%TF.GenerationSoftware,KiCad,Pcbnew,8.0.5*%
%TF.CreationDate,2024-11-01T12:18:04+01:00*%
%TF.ProjectId,ATmega644,41546d65-6761-4363-9434-2e6b69636164,rev?*%
%TF.SameCoordinates,Original*%
%TF.FileFunction,Soldermask,Top*%
%TF.FilePolarity,Negative*%
%FSLAX46Y46*%
G04 Gerber Fmt 4.6, Leading zero omitted, Abs format (unit mm)*
G04 Created by KiCad (PCBNEW 8.0.5) date 2024-11-01 12:18:04*
%MOMM*%
%LPD*%
G01*
G04 APERTURE LIST*
G04 Aperture macros list*
%AMRoundRect*
0 Rectangle with rounded corners*
0 $1 Rounding radius*
0 $2 $3 $4 $5 $6 $7 $8 $9 X,Y pos of 4 corners*
0 Add a 4 corners polygon primitive as box body*
4,1,4,$2,$3,$4,$5,$6,$7,$8,$9,$2,$3,0*
0 Add four circle primitives for the rounded corners*
1,1,$1+$1,$2,$3*
1,1,$1+$1,$4,$5*
1,1,$1+$1,$6,$7*
1,1,$1+$1,$8,$9*
0 Add four rect primitives between the rounded corners*
20,1,$1+$1,$2,$3,$4,$5,0*
20,1,$1+$1,$4,$5,$6,$7,0*
20,1,$1+$1,$6,$7,$8,$9,0*
20,1,$1+$1,$8,$9,$2,$3,0*%
G04 Aperture macros list end*
%ADD10C,2.000000*%
%ADD11R,1.700000X1.700000*%
%ADD12O,1.700000X1.700000*%
%ADD13RoundRect,0.150000X0.587500X0.150000X-0.587500X0.150000X-0.587500X-0.150000X0.587500X-0.150000X0*%
%ADD14RoundRect,0.250001X-0.624999X0.462499X-0.624999X-0.462499X0.624999X-0.462499X0.624999X0.462499X0*%
%ADD15RoundRect,0.250001X0.462499X0.624999X-0.462499X0.624999X-0.462499X-0.624999X0.462499X-0.624999X0*%
%ADD16RoundRect,0.250000X-0.337500X-0.475000X0.337500X-0.475000X0.337500X0.475000X-0.337500X0.475000X0*%
%ADD17RoundRect,0.250001X-0.462499X-0.624999X0.462499X-0.624999X0.462499X0.624999X-0.462499X0.624999X0*%
%ADD18RoundRect,0.250000X0.475000X-0.337500X0.475000X0.337500X-0.475000X0.337500X-0.475000X-0.337500X0*%
%ADD19RoundRect,0.250000X0.450000X-0.325000X0.450000X0.325000X-0.450000X0.325000X-0.450000X-0.325000X0*%
%ADD20R,2.032000X2.032000*%
%ADD21C,2.032000*%
%ADD22C,3.200000*%
%ADD23R,3.000000X3.000000*%
%ADD24C,3.000000*%
%ADD25R,2.400000X0.740000*%
%ADD26RoundRect,0.250000X-0.475000X0.337500X-0.475000X-0.337500X0.475000X-0.337500X0.475000X0.337500X0*%
%ADD27RoundRect,0.250000X-0.325000X-0.450000X0.325000X-0.450000X0.325000X0.450000X-0.325000X0.450000X0*%
%ADD28R,2.000000X2.000000*%
%ADD29C,1.620000*%
%ADD30R,1.600000X1.600000*%
%ADD31C,1.600000*%
%ADD32O,1.600000X1.600000*%
%ADD33RoundRect,0.250000X0.600000X-0.600000X0.600000X0.600000X-0.600000X0.600000X-0.600000X-0.600000X0*%
%ADD34C,1.700000*%
%ADD35C,1.500000*%
%ADD36R,1.500000X1.500000*%
%ADD37RoundRect,0.250000X-1.500000X-0.900000X1.500000X-0.900000X1.500000X0.900000X-1.500000X0.900000X0*%
G04 APERTURE END LIST*
D10*
%TO.C,SW2*%
X86775000Y-29750000D03*
X93275000Y-29750000D03*
X86775000Y-34250000D03*
X93275000Y-34250000D03*
%TD*%
D11*
%TO.C,J12*%
X118500000Y-115775000D03*
D12*
X118500000Y-113235000D03*
%TD*%
D13*
%TO.C,Q7*%
X184750000Y-79500000D03*
X184750000Y-77600000D03*
X182875000Y-78550000D03*
%TD*%
D14*
%TO.C,R24*%
X140500000Y-97512500D03*
X140500000Y-100487500D03*
%TD*%
D13*
%TO.C,Q8*%
X184750000Y-83000000D03*
X184750000Y-81100000D03*
X182875000Y-82050000D03*
%TD*%
D15*
%TO.C,R29*%
X99500000Y-51250000D03*
X96525000Y-51250000D03*
%TD*%
D16*
%TO.C,R11*%
X164300000Y-77850000D03*
X166375000Y-77850000D03*
%TD*%
%TO.C,R20*%
X164662500Y-108050000D03*
X166737500Y-108050000D03*
%TD*%
D13*
%TO.C,Q2*%
X184750000Y-62050000D03*
X184750000Y-60150000D03*
X182875000Y-61100000D03*
%TD*%
D17*
%TO.C,R32*%
X77275000Y-42750000D03*
X80250000Y-42750000D03*
%TD*%
D11*
%TO.C,J17*%
X154080000Y-50710000D03*
D12*
X154080000Y-53250000D03*
X151540000Y-50710000D03*
X151540000Y-53250000D03*
X149000000Y-50710000D03*
X149000000Y-53250000D03*
X146460000Y-50710000D03*
X146460000Y-53250000D03*
X143920000Y-50710000D03*
X143920000Y-53250000D03*
%TD*%
D18*
%TO.C,R1*%
X128750000Y-85287500D03*
X128750000Y-83212500D03*
%TD*%
D11*
%TO.C,J20*%
X92740000Y-64250000D03*
D12*
X90200000Y-64250000D03*
X87660000Y-64250000D03*
X85120000Y-64250000D03*
X82580000Y-64250000D03*
X80040000Y-64250000D03*
X77500000Y-64250000D03*
X74960000Y-64250000D03*
%TD*%
D10*
%TO.C,SW5*%
X86775000Y-55000000D03*
X93275000Y-55000000D03*
X86775000Y-59500000D03*
X93275000Y-59500000D03*
%TD*%
D16*
%TO.C,R21*%
X164662500Y-110550000D03*
X166737500Y-110550000D03*
%TD*%
D19*
%TO.C,R26*%
X89950000Y-121290000D03*
X89950000Y-119240000D03*
%TD*%
D16*
%TO.C,R15*%
X164662500Y-95550000D03*
X166737500Y-95550000D03*
%TD*%
D17*
%TO.C,R33*%
X77250000Y-51250000D03*
X80225000Y-51250000D03*
%TD*%
D10*
%TO.C,SW1*%
X103250000Y-112500000D03*
X109750000Y-112500000D03*
X103250000Y-117000000D03*
X109750000Y-117000000D03*
%TD*%
D17*
%TO.C,R34*%
X77275000Y-59750000D03*
X80250000Y-59750000D03*
%TD*%
D20*
%TO.C,BAR1*%
X169375000Y-57530000D03*
D21*
X169375000Y-60070000D03*
X169375000Y-62610000D03*
X169375000Y-65150000D03*
X169375000Y-67690000D03*
X169375000Y-70230000D03*
X169375000Y-72770000D03*
X169375000Y-75310000D03*
X169375000Y-77850000D03*
X169375000Y-80390000D03*
X176995000Y-80390000D03*
X176995000Y-77850000D03*
X176995000Y-75310000D03*
X176995000Y-72770000D03*
X176995000Y-70230000D03*
X176995000Y-67690000D03*
X176995000Y-65150000D03*
X176995000Y-62610000D03*
X176995000Y-60070000D03*
X176995000Y-57530000D03*
%TD*%
D22*
%TO.C,H2*%
X61750000Y-32000000D03*
%TD*%
D23*
%TO.C,J21*%
X155000000Y-44080000D03*
D24*
X155000000Y-39000000D03*
%TD*%
D13*
%TO.C,Q1*%
X184750000Y-58550000D03*
X184750000Y-56650000D03*
X182875000Y-57600000D03*
%TD*%
%TO.C,Q4*%
X184750000Y-69000000D03*
X184750000Y-67100000D03*
X182875000Y-68050000D03*
%TD*%
D25*
%TO.C,J9*%
X180300000Y-122710000D03*
X184200000Y-122710000D03*
X180300000Y-123980000D03*
X184200000Y-123980000D03*
X180300000Y-125250000D03*
X184200000Y-125250000D03*
X180300000Y-126520000D03*
X184200000Y-126520000D03*
X180300000Y-127790000D03*
X184200000Y-127790000D03*
%TD*%
D13*
%TO.C,Q11*%
X184812500Y-94800000D03*
X184812500Y-92900000D03*
X182937500Y-93850000D03*
%TD*%
D16*
%TO.C,C11*%
X182512500Y-54100000D03*
X184587500Y-54100000D03*
%TD*%
D26*
%TO.C,C8*%
X113500000Y-83037500D03*
X113500000Y-80962500D03*
%TD*%
D11*
%TO.C,J5*%
X156750000Y-108370000D03*
D12*
X156750000Y-105830000D03*
X156750000Y-103290000D03*
X156750000Y-100750000D03*
X156750000Y-98210000D03*
X156750000Y-95670000D03*
X156750000Y-93130000D03*
X156750000Y-90590000D03*
%TD*%
D20*
%TO.C,BAR2*%
X169535000Y-90227500D03*
D21*
X169535000Y-92767500D03*
X169535000Y-95307500D03*
X169535000Y-97847500D03*
X169535000Y-100387500D03*
X169535000Y-102927500D03*
X169535000Y-105467500D03*
X169535000Y-108007500D03*
X169535000Y-110547500D03*
X169535000Y-113087500D03*
X177155000Y-113087500D03*
X177155000Y-110547500D03*
X177155000Y-108007500D03*
X177155000Y-105467500D03*
X177155000Y-102927500D03*
X177155000Y-100387500D03*
X177155000Y-97847500D03*
X177155000Y-95307500D03*
X177155000Y-92767500D03*
X177155000Y-90227500D03*
%TD*%
D27*
%TO.C,R25*%
X85675000Y-125740000D03*
X87725000Y-125740000D03*
%TD*%
D11*
%TO.C,J6*%
X169710000Y-121250000D03*
D12*
X172250000Y-121250000D03*
X169710000Y-123790000D03*
X172250000Y-123790000D03*
X169710000Y-126330000D03*
X172250000Y-126330000D03*
X169710000Y-128870000D03*
X172250000Y-128870000D03*
X169710000Y-131410000D03*
X172250000Y-131410000D03*
%TD*%
D11*
%TO.C,J18*%
X138330000Y-50710000D03*
D12*
X138330000Y-53250000D03*
X135790000Y-50710000D03*
X135790000Y-53250000D03*
X133250000Y-50710000D03*
X133250000Y-53250000D03*
X130710000Y-50710000D03*
X130710000Y-53250000D03*
X128170000Y-50710000D03*
X128170000Y-53250000D03*
%TD*%
D15*
%TO.C,R28*%
X99500000Y-43250000D03*
X96525000Y-43250000D03*
%TD*%
D26*
%TO.C,C4*%
X158000000Y-50925000D03*
X158000000Y-53000000D03*
%TD*%
D28*
%TO.C,C1*%
X145867677Y-33000000D03*
D10*
X140867677Y-33000000D03*
%TD*%
D17*
%TO.C,R31*%
X77262500Y-34500000D03*
X80237500Y-34500000D03*
%TD*%
D26*
%TO.C,C9*%
X149500000Y-83175000D03*
X149500000Y-85250000D03*
%TD*%
D16*
%TO.C,R17*%
X164662500Y-100550000D03*
X166737500Y-100550000D03*
%TD*%
D10*
%TO.C,SW6*%
X67750000Y-29750000D03*
X74250000Y-29750000D03*
X67750000Y-34250000D03*
X74250000Y-34250000D03*
%TD*%
D22*
%TO.C,H3*%
X186250000Y-133000000D03*
%TD*%
D13*
%TO.C,Q14*%
X184812500Y-112300000D03*
X184812500Y-110400000D03*
X182937500Y-111350000D03*
%TD*%
D29*
%TO.C,RV1*%
X88250000Y-89000000D03*
X93250000Y-86500000D03*
X88250000Y-84000000D03*
%TD*%
D11*
%TO.C,J10*%
X110500000Y-103350000D03*
D12*
X110500000Y-100810000D03*
X110500000Y-98270000D03*
X110500000Y-95730000D03*
X110500000Y-93190000D03*
X110500000Y-90650000D03*
%TD*%
D16*
%TO.C,C10*%
X182662500Y-86800000D03*
X184737500Y-86800000D03*
%TD*%
D11*
%TO.C,J13*%
X81750000Y-85250000D03*
D12*
X81750000Y-87790000D03*
X81750000Y-90330000D03*
X81750000Y-92870000D03*
X81750000Y-95410000D03*
X81750000Y-97950000D03*
X81750000Y-100490000D03*
X81750000Y-103030000D03*
X81750000Y-105570000D03*
X81750000Y-108110000D03*
X81750000Y-110650000D03*
X81750000Y-113190000D03*
X81750000Y-115730000D03*
X81750000Y-118270000D03*
X81750000Y-120810000D03*
X81750000Y-123350000D03*
%TD*%
D16*
%TO.C,R14*%
X164662500Y-93050000D03*
X166737500Y-93050000D03*
%TD*%
D26*
%TO.C,C3*%
X128750000Y-87250000D03*
X128750000Y-89325000D03*
%TD*%
D13*
%TO.C,Q16*%
X184750000Y-115750000D03*
X184750000Y-113850000D03*
X182875000Y-114800000D03*
%TD*%
%TO.C,Q6*%
X184750000Y-76000000D03*
X184750000Y-74100000D03*
X182875000Y-75050000D03*
%TD*%
D16*
%TO.C,R10*%
X164300000Y-75350000D03*
X166375000Y-75350000D03*
%TD*%
D13*
%TO.C,Q13*%
X184812500Y-98300000D03*
X184812500Y-96400000D03*
X182937500Y-97350000D03*
%TD*%
D16*
%TO.C,R8*%
X164300000Y-70350000D03*
X166375000Y-70350000D03*
%TD*%
D19*
%TO.C,C13*%
X114000000Y-105525000D03*
X114000000Y-103475000D03*
%TD*%
D10*
%TO.C,SW3*%
X86750000Y-38250000D03*
X93250000Y-38250000D03*
X86750000Y-42750000D03*
X93250000Y-42750000D03*
%TD*%
%TO.C,SW7*%
X67750000Y-38250000D03*
X74250000Y-38250000D03*
X67750000Y-42750000D03*
X74250000Y-42750000D03*
%TD*%
D15*
%TO.C,R30*%
X99250000Y-59750000D03*
X96275000Y-59750000D03*
%TD*%
D13*
%TO.C,Q12*%
X184812500Y-108800000D03*
X184812500Y-106900000D03*
X182937500Y-107850000D03*
%TD*%
D11*
%TO.C,J4*%
X156750000Y-62510000D03*
D12*
X156750000Y-65050000D03*
X156750000Y-67590000D03*
X156750000Y-70130000D03*
X156750000Y-72670000D03*
X156750000Y-75210000D03*
X156750000Y-77750000D03*
X156750000Y-80290000D03*
%TD*%
D30*
%TO.C,C2*%
X125750000Y-32750000D03*
D31*
X128250000Y-32750000D03*
%TD*%
D22*
%TO.C,H1*%
X186250000Y-32000000D03*
%TD*%
D11*
%TO.C,J19*%
X107750000Y-62710000D03*
D12*
X107750000Y-65250000D03*
X107750000Y-67790000D03*
X107750000Y-70330000D03*
X107750000Y-72870000D03*
X107750000Y-75410000D03*
X107750000Y-77950000D03*
X107750000Y-80490000D03*
%TD*%
D13*
%TO.C,Q9*%
X184812500Y-91300000D03*
X184812500Y-89400000D03*
X182937500Y-90350000D03*
%TD*%
%TO.C,Q5*%
X184750000Y-72500000D03*
X184750000Y-70600000D03*
X182875000Y-71550000D03*
%TD*%
D16*
%TO.C,R18*%
X164662500Y-103050000D03*
X166737500Y-103050000D03*
%TD*%
%TO.C,R4*%
X164300000Y-60100000D03*
X166375000Y-60100000D03*
%TD*%
%TO.C,R7*%
X164300000Y-67850000D03*
X166375000Y-67850000D03*
%TD*%
D13*
%TO.C,Q10*%
X184812500Y-105300000D03*
X184812500Y-103400000D03*
X182937500Y-104350000D03*
%TD*%
D11*
%TO.C,J2*%
X176837500Y-86750000D03*
D12*
X174297500Y-86750000D03*
%TD*%
D30*
%TO.C,U2*%
X131232500Y-62570000D03*
D32*
X131232500Y-65110000D03*
X131232500Y-67650000D03*
X131232500Y-70190000D03*
X131232500Y-72730000D03*
X131232500Y-75270000D03*
X131232500Y-77810000D03*
X131232500Y-80350000D03*
X131232500Y-82890000D03*
X131232500Y-85430000D03*
X131232500Y-87970000D03*
X131232500Y-90510000D03*
X131232500Y-93050000D03*
X131232500Y-95590000D03*
X131232500Y-98130000D03*
X131232500Y-100670000D03*
X131232500Y-103210000D03*
X131232500Y-105750000D03*
X131232500Y-108290000D03*
X131232500Y-110830000D03*
X146472500Y-110830000D03*
X146472500Y-108290000D03*
X146472500Y-105750000D03*
X146472500Y-103210000D03*
X146472500Y-100670000D03*
X146472500Y-98130000D03*
X146472500Y-95590000D03*
X146472500Y-93050000D03*
X146472500Y-90510000D03*
X146472500Y-87970000D03*
X146472500Y-85430000D03*
X146472500Y-82890000D03*
X146472500Y-80350000D03*
X146472500Y-77810000D03*
X146472500Y-75270000D03*
X146472500Y-72730000D03*
X146472500Y-70190000D03*
X146472500Y-67650000D03*
X146472500Y-65110000D03*
X146472500Y-62570000D03*
%TD*%
D33*
%TO.C,J3*%
X118000000Y-126790000D03*
D34*
X118000000Y-124250000D03*
X120540000Y-126790000D03*
X120540000Y-124250000D03*
X123080000Y-126790000D03*
X123080000Y-124250000D03*
%TD*%
D27*
%TO.C,R2*%
X85650000Y-123490000D03*
X87700000Y-123490000D03*
%TD*%
D16*
%TO.C,R16*%
X164662500Y-98050000D03*
X166737500Y-98050000D03*
%TD*%
D10*
%TO.C,SW8*%
X67750000Y-46750000D03*
X74250000Y-46750000D03*
X67750000Y-51250000D03*
X74250000Y-51250000D03*
%TD*%
D33*
%TO.C,J7*%
X135670000Y-126750000D03*
D34*
X135670000Y-124210000D03*
X138210000Y-126750000D03*
X138210000Y-124210000D03*
X140750000Y-126750000D03*
X140750000Y-124210000D03*
%TD*%
D10*
%TO.C,SW9*%
X67750000Y-55250000D03*
X74250000Y-55250000D03*
X67750000Y-59750000D03*
X74250000Y-59750000D03*
%TD*%
D16*
%TO.C,R9*%
X164300000Y-72850000D03*
X166375000Y-72850000D03*
%TD*%
D35*
%TO.C,Y1*%
X117500000Y-86950000D03*
X117500000Y-82070000D03*
%TD*%
D14*
%TO.C,R23*%
X143000000Y-97512500D03*
X143000000Y-100487500D03*
%TD*%
D13*
%TO.C,Q17*%
X87575000Y-121440000D03*
X87575000Y-119540000D03*
X85700000Y-120490000D03*
%TD*%
D18*
%TO.C,C7*%
X113500000Y-85212500D03*
X113500000Y-87287500D03*
%TD*%
D16*
%TO.C,C6*%
X148675000Y-88000000D03*
X150750000Y-88000000D03*
%TD*%
%TO.C,R6*%
X164300000Y-65350000D03*
X166375000Y-65350000D03*
%TD*%
%TO.C,R19*%
X164662500Y-105550000D03*
X166737500Y-105550000D03*
%TD*%
D33*
%TO.C,J8*%
X153170000Y-126750000D03*
D34*
X153170000Y-124210000D03*
X155710000Y-126750000D03*
X155710000Y-124210000D03*
X158250000Y-126750000D03*
X158250000Y-124210000D03*
%TD*%
D11*
%TO.C,J14*%
X86175000Y-128990000D03*
D12*
X88715000Y-128990000D03*
%TD*%
D36*
%TO.C,U1*%
X134897500Y-40442500D03*
D35*
X132357500Y-40442500D03*
X129817500Y-40442500D03*
%TD*%
D16*
%TO.C,R22*%
X164662500Y-113300000D03*
X166737500Y-113300000D03*
%TD*%
%TO.C,R3*%
X164300000Y-57600000D03*
X166375000Y-57600000D03*
%TD*%
D13*
%TO.C,Q3*%
X184750000Y-65550000D03*
X184750000Y-63650000D03*
X182875000Y-64600000D03*
%TD*%
D11*
%TO.C,J1*%
X176550000Y-54100000D03*
D12*
X174010000Y-54100000D03*
%TD*%
D22*
%TO.C,H4*%
X61750000Y-133000000D03*
%TD*%
D37*
%TO.C,D1*%
X142050000Y-44250000D03*
X147450000Y-44250000D03*
%TD*%
D16*
%TO.C,R13*%
X164662500Y-90300000D03*
X166737500Y-90300000D03*
%TD*%
D13*
%TO.C,Q15*%
X184812500Y-101800000D03*
X184812500Y-99900000D03*
X182937500Y-100850000D03*
%TD*%
D10*
%TO.C,SW4*%
X86775000Y-46750000D03*
X93275000Y-46750000D03*
X86775000Y-51250000D03*
X93275000Y-51250000D03*
%TD*%
D26*
%TO.C,C12*%
X124000000Y-50925000D03*
X124000000Y-53000000D03*
%TD*%
D11*
%TO.C,J15*%
X124250000Y-62625000D03*
D12*
X124250000Y-65165000D03*
X124250000Y-67705000D03*
X124250000Y-70245000D03*
X124250000Y-72785000D03*
X124250000Y-75325000D03*
X124250000Y-77865000D03*
X124250000Y-80405000D03*
%TD*%
D16*
%TO.C,R12*%
X164300000Y-80350000D03*
X166375000Y-80350000D03*
%TD*%
%TO.C,R5*%
X164300000Y-62600000D03*
X166375000Y-62600000D03*
%TD*%
D18*
%TO.C,C5*%
X85700000Y-87490000D03*
X85700000Y-85415000D03*
%TD*%
D11*
%TO.C,J11*%
X118500000Y-105725000D03*
D12*
X118500000Y-108265000D03*
%TD*%
D11*
%TO.C,J16*%
X124000000Y-90590000D03*
D12*
X124000000Y-93130000D03*
X124000000Y-95670000D03*
X124000000Y-98210000D03*
X124000000Y-100750000D03*
X124000000Y-103290000D03*
X124000000Y-105830000D03*
X124000000Y-108370000D03*
%TD*%
D15*
%TO.C,R27*%
X99250000Y-34500000D03*
X96275000Y-34500000D03*
%TD*%
M02*
