%TF.GenerationSoftware,KiCad,Pcbnew,8.0.5*%
%TF.CreationDate,2024-11-01T12:18:04+01:00*%
%TF.ProjectId,ATmega644,41546d65-6761-4363-9434-2e6b69636164,rev?*%
%TF.SameCoordinates,Original*%
%TF.FileFunction,Copper,L1,Top*%
%TF.FilePolarity,Positive*%
%FSLAX46Y46*%
G04 Gerber Fmt 4.6, Leading zero omitted, Abs format (unit mm)*
G04 Created by KiCad (PCBNEW 8.0.5) date 2024-11-01 12:18:04*
%MOMM*%
%LPD*%
G01*
G04 APERTURE LIST*
G04 Aperture macros list*
%AMRoundRect*
0 Rectangle with rounded corners*
0 $1 Rounding radius*
0 $2 $3 $4 $5 $6 $7 $8 $9 X,Y pos of 4 corners*
0 Add a 4 corners polygon primitive as box body*
4,1,4,$2,$3,$4,$5,$6,$7,$8,$9,$2,$3,0*
0 Add four circle primitives for the rounded corners*
1,1,$1+$1,$2,$3*
1,1,$1+$1,$4,$5*
1,1,$1+$1,$6,$7*
1,1,$1+$1,$8,$9*
0 Add four rect primitives between the rounded corners*
20,1,$1+$1,$2,$3,$4,$5,0*
20,1,$1+$1,$4,$5,$6,$7,0*
20,1,$1+$1,$6,$7,$8,$9,0*
20,1,$1+$1,$8,$9,$2,$3,0*%
G04 Aperture macros list end*
%TA.AperFunction,ComponentPad*%
%ADD10C,2.000000*%
%TD*%
%TA.AperFunction,ComponentPad*%
%ADD11R,1.700000X1.700000*%
%TD*%
%TA.AperFunction,ComponentPad*%
%ADD12O,1.700000X1.700000*%
%TD*%
%TA.AperFunction,SMDPad,CuDef*%
%ADD13RoundRect,0.150000X0.587500X0.150000X-0.587500X0.150000X-0.587500X-0.150000X0.587500X-0.150000X0*%
%TD*%
%TA.AperFunction,SMDPad,CuDef*%
%ADD14RoundRect,0.250001X-0.624999X0.462499X-0.624999X-0.462499X0.624999X-0.462499X0.624999X0.462499X0*%
%TD*%
%TA.AperFunction,SMDPad,CuDef*%
%ADD15RoundRect,0.250001X0.462499X0.624999X-0.462499X0.624999X-0.462499X-0.624999X0.462499X-0.624999X0*%
%TD*%
%TA.AperFunction,SMDPad,CuDef*%
%ADD16RoundRect,0.250000X-0.337500X-0.475000X0.337500X-0.475000X0.337500X0.475000X-0.337500X0.475000X0*%
%TD*%
%TA.AperFunction,SMDPad,CuDef*%
%ADD17RoundRect,0.250001X-0.462499X-0.624999X0.462499X-0.624999X0.462499X0.624999X-0.462499X0.624999X0*%
%TD*%
%TA.AperFunction,SMDPad,CuDef*%
%ADD18RoundRect,0.250000X0.475000X-0.337500X0.475000X0.337500X-0.475000X0.337500X-0.475000X-0.337500X0*%
%TD*%
%TA.AperFunction,SMDPad,CuDef*%
%ADD19RoundRect,0.250000X0.450000X-0.325000X0.450000X0.325000X-0.450000X0.325000X-0.450000X-0.325000X0*%
%TD*%
%TA.AperFunction,ComponentPad*%
%ADD20R,2.032000X2.032000*%
%TD*%
%TA.AperFunction,ComponentPad*%
%ADD21C,2.032000*%
%TD*%
%TA.AperFunction,ComponentPad*%
%ADD22R,3.000000X3.000000*%
%TD*%
%TA.AperFunction,ComponentPad*%
%ADD23C,3.000000*%
%TD*%
%TA.AperFunction,SMDPad,CuDef*%
%ADD24R,2.400000X0.740000*%
%TD*%
%TA.AperFunction,SMDPad,CuDef*%
%ADD25RoundRect,0.250000X-0.475000X0.337500X-0.475000X-0.337500X0.475000X-0.337500X0.475000X0.337500X0*%
%TD*%
%TA.AperFunction,SMDPad,CuDef*%
%ADD26RoundRect,0.250000X-0.325000X-0.450000X0.325000X-0.450000X0.325000X0.450000X-0.325000X0.450000X0*%
%TD*%
%TA.AperFunction,ComponentPad*%
%ADD27R,2.000000X2.000000*%
%TD*%
%TA.AperFunction,ComponentPad*%
%ADD28C,1.620000*%
%TD*%
%TA.AperFunction,ComponentPad*%
%ADD29R,1.600000X1.600000*%
%TD*%
%TA.AperFunction,ComponentPad*%
%ADD30C,1.600000*%
%TD*%
%TA.AperFunction,ComponentPad*%
%ADD31O,1.600000X1.600000*%
%TD*%
%TA.AperFunction,ComponentPad*%
%ADD32RoundRect,0.250000X0.600000X-0.600000X0.600000X0.600000X-0.600000X0.600000X-0.600000X-0.600000X0*%
%TD*%
%TA.AperFunction,ComponentPad*%
%ADD33C,1.700000*%
%TD*%
%TA.AperFunction,ComponentPad*%
%ADD34C,1.500000*%
%TD*%
%TA.AperFunction,ComponentPad*%
%ADD35R,1.500000X1.500000*%
%TD*%
%TA.AperFunction,SMDPad,CuDef*%
%ADD36RoundRect,0.250000X-1.500000X-0.900000X1.500000X-0.900000X1.500000X0.900000X-1.500000X0.900000X0*%
%TD*%
%TA.AperFunction,ViaPad*%
%ADD37C,0.600000*%
%TD*%
%TA.AperFunction,ViaPad*%
%ADD38C,1.000000*%
%TD*%
%TA.AperFunction,Conductor*%
%ADD39C,0.200000*%
%TD*%
%TA.AperFunction,Conductor*%
%ADD40C,0.250000*%
%TD*%
%TA.AperFunction,Conductor*%
%ADD41C,0.500000*%
%TD*%
%TA.AperFunction,Conductor*%
%ADD42C,1.000000*%
%TD*%
G04 APERTURE END LIST*
D10*
%TO.P,SW2,1,1*%
%TO.N,GND*%
X86775000Y-29750000D03*
X93275000Y-29750000D03*
%TO.P,SW2,2,2*%
%TO.N,/Buttons/Button1*%
X86775000Y-34250000D03*
X93275000Y-34250000D03*
%TD*%
D11*
%TO.P,J12,1,Pin_1*%
%TO.N,Net-(J12-Pin_1)*%
X118500000Y-115775000D03*
D12*
%TO.P,J12,2,Pin_2*%
%TO.N,Reset*%
X118500000Y-113235000D03*
%TD*%
D13*
%TO.P,Q7,1,G*%
%TO.N,PortA6*%
X184750000Y-79500000D03*
%TO.P,Q7,2,S*%
%TO.N,GND*%
X184750000Y-77600000D03*
%TO.P,Q7,3,D*%
%TO.N,/PORTS/PortA6_LED*%
X182875000Y-78550000D03*
%TD*%
D14*
%TO.P,R24,1*%
%TO.N,VCC*%
X140500000Y-97512500D03*
%TO.P,R24,2*%
%TO.N,PortC0*%
X140500000Y-100487500D03*
%TD*%
D13*
%TO.P,Q8,1,G*%
%TO.N,PortA7*%
X184750000Y-83000000D03*
%TO.P,Q8,2,S*%
%TO.N,GND*%
X184750000Y-81100000D03*
%TO.P,Q8,3,D*%
%TO.N,/PORTS/PortA7_LED*%
X182875000Y-82050000D03*
%TD*%
D15*
%TO.P,R29,1*%
%TO.N,VCC*%
X99500000Y-51250000D03*
%TO.P,R29,2*%
%TO.N,/Buttons/Button3*%
X96525000Y-51250000D03*
%TD*%
D16*
%TO.P,R11,1*%
%TO.N,/PORTS/PortA_Leds_VCC*%
X164300000Y-77850000D03*
%TO.P,R11,2*%
%TO.N,Net-(BAR1-A-Pad9)*%
X166375000Y-77850000D03*
%TD*%
%TO.P,R20,1*%
%TO.N,Net-(J2-Pin_2)*%
X164662500Y-108050000D03*
%TO.P,R20,2*%
%TO.N,Net-(BAR2-A-Pad8)*%
X166737500Y-108050000D03*
%TD*%
D13*
%TO.P,Q2,1,G*%
%TO.N,PortA1*%
X184750000Y-62050000D03*
%TO.P,Q2,2,S*%
%TO.N,GND*%
X184750000Y-60150000D03*
%TO.P,Q2,3,D*%
%TO.N,/PORTS/PortA1_LED*%
X182875000Y-61100000D03*
%TD*%
D17*
%TO.P,R32,1*%
%TO.N,/Buttons/Button6*%
X77275000Y-42750000D03*
%TO.P,R32,2*%
%TO.N,GND*%
X80250000Y-42750000D03*
%TD*%
D11*
%TO.P,J17,1,Pin_1*%
%TO.N,VCC*%
X154080000Y-50710000D03*
D12*
%TO.P,J17,2,Pin_2*%
%TO.N,GND*%
X154080000Y-53250000D03*
%TO.P,J17,3,Pin_3*%
%TO.N,VCC*%
X151540000Y-50710000D03*
%TO.P,J17,4,Pin_4*%
%TO.N,GND*%
X151540000Y-53250000D03*
%TO.P,J17,5,Pin_5*%
%TO.N,VCC*%
X149000000Y-50710000D03*
%TO.P,J17,6,Pin_6*%
%TO.N,GND*%
X149000000Y-53250000D03*
%TO.P,J17,7,Pin_7*%
%TO.N,VCC*%
X146460000Y-50710000D03*
%TO.P,J17,8,Pin_8*%
%TO.N,GND*%
X146460000Y-53250000D03*
%TO.P,J17,9,Pin_9*%
%TO.N,VCC*%
X143920000Y-50710000D03*
%TO.P,J17,10,Pin_10*%
%TO.N,GND*%
X143920000Y-53250000D03*
%TD*%
D18*
%TO.P,R1,1*%
%TO.N,VCC*%
X128750000Y-85287500D03*
%TO.P,R1,2*%
%TO.N,Reset*%
X128750000Y-83212500D03*
%TD*%
D11*
%TO.P,J20,1,Pin_1*%
%TO.N,/Buttons/Button1*%
X92740000Y-64250000D03*
D12*
%TO.P,J20,2,Pin_2*%
%TO.N,/Buttons/Button2*%
X90200000Y-64250000D03*
%TO.P,J20,3,Pin_3*%
%TO.N,/Buttons/Button3*%
X87660000Y-64250000D03*
%TO.P,J20,4,Pin_4*%
%TO.N,/Buttons/Button4*%
X85120000Y-64250000D03*
%TO.P,J20,5,Pin_5*%
%TO.N,/Buttons/Button5*%
X82580000Y-64250000D03*
%TO.P,J20,6,Pin_6*%
%TO.N,/Buttons/Button6*%
X80040000Y-64250000D03*
%TO.P,J20,7,Pin_7*%
%TO.N,/Buttons/Button7*%
X77500000Y-64250000D03*
%TO.P,J20,8,Pin_8*%
%TO.N,/Buttons/Button8*%
X74960000Y-64250000D03*
%TD*%
D10*
%TO.P,SW5,1,1*%
%TO.N,GND*%
X86775000Y-55000000D03*
X93275000Y-55000000D03*
%TO.P,SW5,2,2*%
%TO.N,/Buttons/Button4*%
X86775000Y-59500000D03*
X93275000Y-59500000D03*
%TD*%
D16*
%TO.P,R21,1*%
%TO.N,Net-(J2-Pin_2)*%
X164662500Y-110550000D03*
%TO.P,R21,2*%
%TO.N,Net-(BAR2-A-Pad9)*%
X166737500Y-110550000D03*
%TD*%
D19*
%TO.P,R26,1*%
%TO.N,Net-(J14-Pin_2)*%
X89950000Y-121290000D03*
%TO.P,R26,2*%
%TO.N,GND*%
X89950000Y-119240000D03*
%TD*%
D16*
%TO.P,R15,1*%
%TO.N,Net-(J2-Pin_2)*%
X164662500Y-95550000D03*
%TO.P,R15,2*%
%TO.N,Net-(BAR2-A-Pad3)*%
X166737500Y-95550000D03*
%TD*%
D17*
%TO.P,R33,1*%
%TO.N,/Buttons/Button7*%
X77250000Y-51250000D03*
%TO.P,R33,2*%
%TO.N,GND*%
X80225000Y-51250000D03*
%TD*%
D10*
%TO.P,SW1,1,1*%
%TO.N,GND*%
X103250000Y-112500000D03*
X109750000Y-112500000D03*
%TO.P,SW1,2,2*%
%TO.N,Reset*%
X103250000Y-117000000D03*
X109750000Y-117000000D03*
%TD*%
D17*
%TO.P,R34,1*%
%TO.N,/Buttons/Button8*%
X77275000Y-59750000D03*
%TO.P,R34,2*%
%TO.N,GND*%
X80250000Y-59750000D03*
%TD*%
D20*
%TO.P,BAR1,1,A*%
%TO.N,Net-(BAR1-A-Pad1)*%
X169375000Y-57530000D03*
D21*
%TO.P,BAR1,2,A*%
%TO.N,Net-(BAR1-A-Pad2)*%
X169375000Y-60070000D03*
%TO.P,BAR1,3,A*%
%TO.N,Net-(BAR1-A-Pad3)*%
X169375000Y-62610000D03*
%TO.P,BAR1,4,A*%
%TO.N,Net-(BAR1-A-Pad4)*%
X169375000Y-65150000D03*
%TO.P,BAR1,5,A*%
%TO.N,Net-(BAR1-A-Pad5)*%
X169375000Y-67690000D03*
%TO.P,BAR1,6,A*%
%TO.N,Net-(BAR1-A-Pad6)*%
X169375000Y-70230000D03*
%TO.P,BAR1,7,A*%
%TO.N,Net-(BAR1-A-Pad7)*%
X169375000Y-72770000D03*
%TO.P,BAR1,8,A*%
%TO.N,Net-(BAR1-A-Pad8)*%
X169375000Y-75310000D03*
%TO.P,BAR1,9,A*%
%TO.N,Net-(BAR1-A-Pad9)*%
X169375000Y-77850000D03*
%TO.P,BAR1,10,A*%
%TO.N,Net-(BAR1-A-Pad10)*%
X169375000Y-80390000D03*
%TO.P,BAR1,11,K*%
%TO.N,GND*%
X176995000Y-80390000D03*
%TO.P,BAR1,12,K*%
%TO.N,unconnected-(BAR1-K-Pad12)*%
X176995000Y-77850000D03*
%TO.P,BAR1,13,K*%
%TO.N,/PORTS/PortA7_LED*%
X176995000Y-75310000D03*
%TO.P,BAR1,14,K*%
%TO.N,/PORTS/PortA6_LED*%
X176995000Y-72770000D03*
%TO.P,BAR1,15,K*%
%TO.N,/PORTS/PortA5_LED*%
X176995000Y-70230000D03*
%TO.P,BAR1,16,K*%
%TO.N,/PORTS/PortA4_LED*%
X176995000Y-67690000D03*
%TO.P,BAR1,17,K*%
%TO.N,/PORTS/PortA3_LED*%
X176995000Y-65150000D03*
%TO.P,BAR1,18,K*%
%TO.N,/PORTS/PortA2_LED*%
X176995000Y-62610000D03*
%TO.P,BAR1,19,K*%
%TO.N,/PORTS/PortA1_LED*%
X176995000Y-60070000D03*
%TO.P,BAR1,20,K*%
%TO.N,/PORTS/PortA0_LED*%
X176995000Y-57530000D03*
%TD*%
D22*
%TO.P,J21,1,Pin_1*%
%TO.N,+24V*%
X155000000Y-44080000D03*
D23*
%TO.P,J21,2,Pin_2*%
%TO.N,GND*%
X155000000Y-39000000D03*
%TD*%
D13*
%TO.P,Q1,1,G*%
%TO.N,PortA0*%
X184750000Y-58550000D03*
%TO.P,Q1,2,S*%
%TO.N,GND*%
X184750000Y-56650000D03*
%TO.P,Q1,3,D*%
%TO.N,/PORTS/PortA0_LED*%
X182875000Y-57600000D03*
%TD*%
%TO.P,Q4,1,G*%
%TO.N,PortA3*%
X184750000Y-69000000D03*
%TO.P,Q4,2,S*%
%TO.N,GND*%
X184750000Y-67100000D03*
%TO.P,Q4,3,D*%
%TO.N,/PORTS/PortA3_LED*%
X182875000Y-68050000D03*
%TD*%
D24*
%TO.P,J9,1,TCK*%
%TO.N,PortC2*%
X180300000Y-122710000D03*
%TO.P,J9,2,GND*%
%TO.N,GND*%
X184200000Y-122710000D03*
%TO.P,J9,3,TDO*%
%TO.N,PortC4*%
X180300000Y-123980000D03*
%TO.P,J9,4,VREF*%
%TO.N,VCC*%
X184200000Y-123980000D03*
%TO.P,J9,5,TMS*%
%TO.N,PortC3*%
X180300000Y-125250000D03*
%TO.P,J9,6,~{SRST}*%
%TO.N,RESET*%
X184200000Y-125250000D03*
%TO.P,J9,7,VCC*%
%TO.N,VCC*%
X180300000Y-126520000D03*
%TO.P,J9,8,~{TRST}*%
%TO.N,unconnected-(J9-~{TRST}-Pad8)*%
X184200000Y-126520000D03*
%TO.P,J9,9,TDI*%
%TO.N,PortC5*%
X180300000Y-127790000D03*
%TO.P,J9,10,GND*%
%TO.N,GND*%
X184200000Y-127790000D03*
%TD*%
D13*
%TO.P,Q11,1,G*%
%TO.N,PortC1*%
X184812500Y-94800000D03*
%TO.P,Q11,2,S*%
%TO.N,GND*%
X184812500Y-92900000D03*
%TO.P,Q11,3,D*%
%TO.N,/PORTS/PortC1_LED*%
X182937500Y-93850000D03*
%TD*%
D16*
%TO.P,C11,1*%
%TO.N,VCC*%
X182512500Y-54100000D03*
%TO.P,C11,2*%
%TO.N,GND*%
X184587500Y-54100000D03*
%TD*%
D25*
%TO.P,C8,2*%
%TO.N,GND*%
X113500000Y-83037500D03*
%TO.P,C8,1*%
%TO.N,Net-(U2-XTAL2)*%
X113500000Y-80962500D03*
%TD*%
D11*
%TO.P,J5,1,Pin_1*%
%TO.N,PortC0*%
X156750000Y-108370000D03*
D12*
%TO.P,J5,2,Pin_2*%
%TO.N,PortC1*%
X156750000Y-105830000D03*
%TO.P,J5,3,Pin_3*%
%TO.N,PortC2*%
X156750000Y-103290000D03*
%TO.P,J5,4,Pin_4*%
%TO.N,PortC3*%
X156750000Y-100750000D03*
%TO.P,J5,5,Pin_5*%
%TO.N,PortC4*%
X156750000Y-98210000D03*
%TO.P,J5,6,Pin_6*%
%TO.N,PortC5*%
X156750000Y-95670000D03*
%TO.P,J5,7,Pin_7*%
%TO.N,PortC6*%
X156750000Y-93130000D03*
%TO.P,J5,8,Pin_8*%
%TO.N,PortC7*%
X156750000Y-90590000D03*
%TD*%
D20*
%TO.P,BAR2,1,A*%
%TO.N,Net-(BAR2-A-Pad1)*%
X169535000Y-90227500D03*
D21*
%TO.P,BAR2,2,A*%
%TO.N,Net-(BAR2-A-Pad2)*%
X169535000Y-92767500D03*
%TO.P,BAR2,3,A*%
%TO.N,Net-(BAR2-A-Pad3)*%
X169535000Y-95307500D03*
%TO.P,BAR2,4,A*%
%TO.N,Net-(BAR2-A-Pad4)*%
X169535000Y-97847500D03*
%TO.P,BAR2,5,A*%
%TO.N,Net-(BAR2-A-Pad5)*%
X169535000Y-100387500D03*
%TO.P,BAR2,6,A*%
%TO.N,Net-(BAR2-A-Pad6)*%
X169535000Y-102927500D03*
%TO.P,BAR2,7,A*%
%TO.N,Net-(BAR2-A-Pad7)*%
X169535000Y-105467500D03*
%TO.P,BAR2,8,A*%
%TO.N,Net-(BAR2-A-Pad8)*%
X169535000Y-108007500D03*
%TO.P,BAR2,9,A*%
%TO.N,Net-(BAR2-A-Pad9)*%
X169535000Y-110547500D03*
%TO.P,BAR2,10,A*%
%TO.N,Net-(BAR2-A-Pad10)*%
X169535000Y-113087500D03*
%TO.P,BAR2,11,K*%
%TO.N,unconnected-(BAR2-K-Pad11)*%
X177155000Y-113087500D03*
%TO.P,BAR2,12,K*%
%TO.N,unconnected-(BAR2-K-Pad12)*%
X177155000Y-110547500D03*
%TO.P,BAR2,13,K*%
%TO.N,/PORTS/PortC7_LED*%
X177155000Y-108007500D03*
%TO.P,BAR2,14,K*%
%TO.N,/PORTS/PortC6_LED*%
X177155000Y-105467500D03*
%TO.P,BAR2,15,K*%
%TO.N,/PORTS/PortC5_LED*%
X177155000Y-102927500D03*
%TO.P,BAR2,16,K*%
%TO.N,/PORTS/PortC4_LED*%
X177155000Y-100387500D03*
%TO.P,BAR2,17,K*%
%TO.N,/PORTS/PortC3_LED*%
X177155000Y-97847500D03*
%TO.P,BAR2,18,K*%
%TO.N,/PORTS/PortC2_LED*%
X177155000Y-95307500D03*
%TO.P,BAR2,19,K*%
%TO.N,/PORTS/PortC1_LED*%
X177155000Y-92767500D03*
%TO.P,BAR2,20,K*%
%TO.N,/PORTS/PortC0_LED*%
X177155000Y-90227500D03*
%TD*%
D26*
%TO.P,R25,1*%
%TO.N,Net-(J13-Pin_16)*%
X85675000Y-125740000D03*
%TO.P,R25,2*%
%TO.N,Net-(Q17-D)*%
X87725000Y-125740000D03*
%TD*%
D11*
%TO.P,J6,1,TCK*%
%TO.N,PortC2*%
X169710000Y-121250000D03*
D12*
%TO.P,J6,2,GND*%
%TO.N,GND*%
X172250000Y-121250000D03*
%TO.P,J6,3,TDO*%
%TO.N,PortC4*%
X169710000Y-123790000D03*
%TO.P,J6,4,VREF*%
%TO.N,VCC*%
X172250000Y-123790000D03*
%TO.P,J6,5,TMS*%
%TO.N,PortC3*%
X169710000Y-126330000D03*
%TO.P,J6,6,~{SRST}*%
%TO.N,RESET*%
X172250000Y-126330000D03*
%TO.P,J6,7,VCC*%
%TO.N,VCC*%
X169710000Y-128870000D03*
%TO.P,J6,8,~{TRST}*%
%TO.N,unconnected-(J6-~{TRST}-Pad8)*%
X172250000Y-128870000D03*
%TO.P,J6,9,TDI*%
%TO.N,PortC5*%
X169710000Y-131410000D03*
%TO.P,J6,10,GND*%
%TO.N,GND*%
X172250000Y-131410000D03*
%TD*%
D11*
%TO.P,J18,1,Pin_1*%
%TO.N,VCC*%
X138330000Y-50710000D03*
D12*
%TO.P,J18,2,Pin_2*%
%TO.N,GND*%
X138330000Y-53250000D03*
%TO.P,J18,3,Pin_3*%
%TO.N,VCC*%
X135790000Y-50710000D03*
%TO.P,J18,4,Pin_4*%
%TO.N,GND*%
X135790000Y-53250000D03*
%TO.P,J18,5,Pin_5*%
%TO.N,VCC*%
X133250000Y-50710000D03*
%TO.P,J18,6,Pin_6*%
%TO.N,GND*%
X133250000Y-53250000D03*
%TO.P,J18,7,Pin_7*%
%TO.N,VCC*%
X130710000Y-50710000D03*
%TO.P,J18,8,Pin_8*%
%TO.N,GND*%
X130710000Y-53250000D03*
%TO.P,J18,9,Pin_9*%
%TO.N,VCC*%
X128170000Y-50710000D03*
%TO.P,J18,10,Pin_10*%
%TO.N,GND*%
X128170000Y-53250000D03*
%TD*%
D15*
%TO.P,R28,1*%
%TO.N,VCC*%
X99500000Y-43250000D03*
%TO.P,R28,2*%
%TO.N,/Buttons/Button2*%
X96525000Y-43250000D03*
%TD*%
D25*
%TO.P,C4,1*%
%TO.N,VCC*%
X158000000Y-50925000D03*
%TO.P,C4,2*%
%TO.N,GND*%
X158000000Y-53000000D03*
%TD*%
D27*
%TO.P,C1,1*%
%TO.N,Net-(D1-K)*%
X145867677Y-33000000D03*
D10*
%TO.P,C1,2*%
%TO.N,GND*%
X140867677Y-33000000D03*
%TD*%
D17*
%TO.P,R31,1*%
%TO.N,/Buttons/Button5*%
X77262500Y-34500000D03*
%TO.P,R31,2*%
%TO.N,GND*%
X80237500Y-34500000D03*
%TD*%
D25*
%TO.P,C9,1*%
%TO.N,Net-(U2-AREF)*%
X149500000Y-83175000D03*
%TO.P,C9,2*%
%TO.N,GND*%
X149500000Y-85250000D03*
%TD*%
D16*
%TO.P,R17,1*%
%TO.N,Net-(J2-Pin_2)*%
X164662500Y-100550000D03*
%TO.P,R17,2*%
%TO.N,Net-(BAR2-A-Pad5)*%
X166737500Y-100550000D03*
%TD*%
D10*
%TO.P,SW6,1,1*%
%TO.N,VCC*%
X67750000Y-29750000D03*
X74250000Y-29750000D03*
%TO.P,SW6,2,2*%
%TO.N,/Buttons/Button5*%
X67750000Y-34250000D03*
X74250000Y-34250000D03*
%TD*%
D13*
%TO.P,Q14,1,G*%
%TO.N,PortC6*%
X184812500Y-112300000D03*
%TO.P,Q14,2,S*%
%TO.N,GND*%
X184812500Y-110400000D03*
%TO.P,Q14,3,D*%
%TO.N,/PORTS/PortC6_LED*%
X182937500Y-111350000D03*
%TD*%
D28*
%TO.P,RV1,1,1*%
%TO.N,GND*%
X88250000Y-89000000D03*
%TO.P,RV1,2,2*%
%TO.N,Net-(J13-Pin_3)*%
X93250000Y-86500000D03*
%TO.P,RV1,3,3*%
%TO.N,VCC*%
X88250000Y-84000000D03*
%TD*%
D11*
%TO.P,J10,1,Pin_1*%
%TO.N,Net-(J10-Pin_1)*%
X110500000Y-103350000D03*
D12*
%TO.P,J10,2,Pin_2*%
%TO.N,PortD1*%
X110500000Y-100810000D03*
%TO.P,J10,3,Pin_3*%
%TO.N,PortD0*%
X110500000Y-98270000D03*
%TO.P,J10,4,Pin_4*%
%TO.N,Net-(J10-Pin_4)*%
X110500000Y-95730000D03*
%TO.P,J10,5,Pin_5*%
%TO.N,unconnected-(J10-Pin_5-Pad5)*%
X110500000Y-93190000D03*
%TO.P,J10,6,Pin_6*%
%TO.N,GND*%
X110500000Y-90650000D03*
%TD*%
D16*
%TO.P,C10,1*%
%TO.N,VCC*%
X182662500Y-86800000D03*
%TO.P,C10,2*%
%TO.N,GND*%
X184737500Y-86800000D03*
%TD*%
D11*
%TO.P,J13,1,Pin_1*%
%TO.N,GND*%
X81750000Y-85250000D03*
D12*
%TO.P,J13,2,Pin_2*%
%TO.N,VCC*%
X81750000Y-87790000D03*
%TO.P,J13,3,Pin_3*%
%TO.N,Net-(J13-Pin_3)*%
X81750000Y-90330000D03*
%TO.P,J13,4,Pin_4*%
%TO.N,/LCD/RS*%
X81750000Y-92870000D03*
%TO.P,J13,5,Pin_5*%
%TO.N,/LCD/RW*%
X81750000Y-95410000D03*
%TO.P,J13,6,Pin_6*%
%TO.N,/LCD/En*%
X81750000Y-97950000D03*
%TO.P,J13,7,Pin_7*%
%TO.N,GND*%
X81750000Y-100490000D03*
%TO.P,J13,8,Pin_8*%
X81750000Y-103030000D03*
%TO.P,J13,9,Pin_9*%
X81750000Y-105570000D03*
%TO.P,J13,10,Pin_10*%
X81750000Y-108110000D03*
%TO.P,J13,11,Pin_11*%
%TO.N,/LCD/D4*%
X81750000Y-110650000D03*
%TO.P,J13,12,Pin_12*%
%TO.N,/LCD/D5*%
X81750000Y-113190000D03*
%TO.P,J13,13,Pin_13*%
%TO.N,/LCD/D6*%
X81750000Y-115730000D03*
%TO.P,J13,14,Pin_14*%
%TO.N,/LCD/D7*%
X81750000Y-118270000D03*
%TO.P,J13,15,Pin_15*%
%TO.N,VCC*%
X81750000Y-120810000D03*
%TO.P,J13,16,Pin_16*%
%TO.N,Net-(J13-Pin_16)*%
X81750000Y-123350000D03*
%TD*%
D16*
%TO.P,R14,1*%
%TO.N,Net-(J2-Pin_2)*%
X164662500Y-93050000D03*
%TO.P,R14,2*%
%TO.N,Net-(BAR2-A-Pad2)*%
X166737500Y-93050000D03*
%TD*%
D25*
%TO.P,C3,1*%
%TO.N,VCC*%
X128750000Y-87250000D03*
%TO.P,C3,2*%
%TO.N,GND*%
X128750000Y-89325000D03*
%TD*%
D13*
%TO.P,Q16,1,G*%
%TO.N,PortC7*%
X184750000Y-115750000D03*
%TO.P,Q16,2,S*%
%TO.N,GND*%
X184750000Y-113850000D03*
%TO.P,Q16,3,D*%
%TO.N,/PORTS/PortC7_LED*%
X182875000Y-114800000D03*
%TD*%
%TO.P,Q6,1,G*%
%TO.N,PortA5*%
X184750000Y-76000000D03*
%TO.P,Q6,2,S*%
%TO.N,GND*%
X184750000Y-74100000D03*
%TO.P,Q6,3,D*%
%TO.N,/PORTS/PortA5_LED*%
X182875000Y-75050000D03*
%TD*%
D16*
%TO.P,R10,1*%
%TO.N,/PORTS/PortA_Leds_VCC*%
X164300000Y-75350000D03*
%TO.P,R10,2*%
%TO.N,Net-(BAR1-A-Pad8)*%
X166375000Y-75350000D03*
%TD*%
D13*
%TO.P,Q13,1,G*%
%TO.N,PortC2*%
X184812500Y-98300000D03*
%TO.P,Q13,2,S*%
%TO.N,GND*%
X184812500Y-96400000D03*
%TO.P,Q13,3,D*%
%TO.N,/PORTS/PortC2_LED*%
X182937500Y-97350000D03*
%TD*%
D16*
%TO.P,R8,1*%
%TO.N,/PORTS/PortA_Leds_VCC*%
X164300000Y-70350000D03*
%TO.P,R8,2*%
%TO.N,Net-(BAR1-A-Pad6)*%
X166375000Y-70350000D03*
%TD*%
D19*
%TO.P,C13,1*%
%TO.N,Net-(J12-Pin_1)*%
X114000000Y-105525000D03*
%TO.P,C13,2*%
%TO.N,Net-(J10-Pin_1)*%
X114000000Y-103475000D03*
%TD*%
D10*
%TO.P,SW3,1,1*%
%TO.N,GND*%
X86750000Y-38250000D03*
X93250000Y-38250000D03*
%TO.P,SW3,2,2*%
%TO.N,/Buttons/Button2*%
X86750000Y-42750000D03*
X93250000Y-42750000D03*
%TD*%
%TO.P,SW7,1,1*%
%TO.N,VCC*%
X67750000Y-38250000D03*
X74250000Y-38250000D03*
%TO.P,SW7,2,2*%
%TO.N,/Buttons/Button6*%
X67750000Y-42750000D03*
X74250000Y-42750000D03*
%TD*%
D15*
%TO.P,R30,1*%
%TO.N,VCC*%
X99250000Y-59750000D03*
%TO.P,R30,2*%
%TO.N,/Buttons/Button4*%
X96275000Y-59750000D03*
%TD*%
D13*
%TO.P,Q12,1,G*%
%TO.N,PortC5*%
X184812500Y-108800000D03*
%TO.P,Q12,2,S*%
%TO.N,GND*%
X184812500Y-106900000D03*
%TO.P,Q12,3,D*%
%TO.N,/PORTS/PortC5_LED*%
X182937500Y-107850000D03*
%TD*%
D11*
%TO.P,J4,1,Pin_1*%
%TO.N,PortA0*%
X156750000Y-62510000D03*
D12*
%TO.P,J4,2,Pin_2*%
%TO.N,PortA1*%
X156750000Y-65050000D03*
%TO.P,J4,3,Pin_3*%
%TO.N,PortA2*%
X156750000Y-67590000D03*
%TO.P,J4,4,Pin_4*%
%TO.N,PortA3*%
X156750000Y-70130000D03*
%TO.P,J4,5,Pin_5*%
%TO.N,PortA4*%
X156750000Y-72670000D03*
%TO.P,J4,6,Pin_6*%
%TO.N,PortA5*%
X156750000Y-75210000D03*
%TO.P,J4,7,Pin_7*%
%TO.N,PortA6*%
X156750000Y-77750000D03*
%TO.P,J4,8,Pin_8*%
%TO.N,PortA7*%
X156750000Y-80290000D03*
%TD*%
D29*
%TO.P,C2,1*%
%TO.N,VCC*%
X125750000Y-32750000D03*
D30*
%TO.P,C2,2*%
%TO.N,GND*%
X128250000Y-32750000D03*
%TD*%
D11*
%TO.P,J19,1,Pin_1*%
%TO.N,/LCD/RS*%
X107750000Y-62710000D03*
D12*
%TO.P,J19,2,Pin_2*%
%TO.N,/LCD/RW*%
X107750000Y-65250000D03*
%TO.P,J19,3,Pin_3*%
%TO.N,/LCD/En*%
X107750000Y-67790000D03*
%TO.P,J19,4,Pin_4*%
%TO.N,/LCD/D4*%
X107750000Y-70330000D03*
%TO.P,J19,5,Pin_5*%
%TO.N,/LCD/D5*%
X107750000Y-72870000D03*
%TO.P,J19,6,Pin_6*%
%TO.N,/LCD/D6*%
X107750000Y-75410000D03*
%TO.P,J19,7,Pin_7*%
%TO.N,/LCD/D7*%
X107750000Y-77950000D03*
%TO.P,J19,8,Pin_8*%
%TO.N,unconnected-(J19-Pin_8-Pad8)*%
X107750000Y-80490000D03*
%TD*%
D13*
%TO.P,Q9,1,G*%
%TO.N,PortC0*%
X184812500Y-91300000D03*
%TO.P,Q9,2,S*%
%TO.N,GND*%
X184812500Y-89400000D03*
%TO.P,Q9,3,D*%
%TO.N,/PORTS/PortC0_LED*%
X182937500Y-90350000D03*
%TD*%
%TO.P,Q5,1,G*%
%TO.N,PortA4*%
X184750000Y-72500000D03*
%TO.P,Q5,2,S*%
%TO.N,GND*%
X184750000Y-70600000D03*
%TO.P,Q5,3,D*%
%TO.N,/PORTS/PortA4_LED*%
X182875000Y-71550000D03*
%TD*%
D16*
%TO.P,R18,1*%
%TO.N,Net-(J2-Pin_2)*%
X164662500Y-103050000D03*
%TO.P,R18,2*%
%TO.N,Net-(BAR2-A-Pad6)*%
X166737500Y-103050000D03*
%TD*%
%TO.P,R4,1*%
%TO.N,/PORTS/PortA_Leds_VCC*%
X164300000Y-60100000D03*
%TO.P,R4,2*%
%TO.N,Net-(BAR1-A-Pad2)*%
X166375000Y-60100000D03*
%TD*%
%TO.P,R7,1*%
%TO.N,/PORTS/PortA_Leds_VCC*%
X164300000Y-67850000D03*
%TO.P,R7,2*%
%TO.N,Net-(BAR1-A-Pad5)*%
X166375000Y-67850000D03*
%TD*%
D13*
%TO.P,Q10,1,G*%
%TO.N,PortC4*%
X184812500Y-105300000D03*
%TO.P,Q10,2,S*%
%TO.N,GND*%
X184812500Y-103400000D03*
%TO.P,Q10,3,D*%
%TO.N,/PORTS/PortC4_LED*%
X182937500Y-104350000D03*
%TD*%
D11*
%TO.P,J2,1,Pin_1*%
%TO.N,VCC*%
X176837500Y-86750000D03*
D12*
%TO.P,J2,2,Pin_2*%
%TO.N,Net-(J2-Pin_2)*%
X174297500Y-86750000D03*
%TD*%
D29*
%TO.P,U2,1,PB0*%
%TO.N,PortB0*%
X131232500Y-62570000D03*
D31*
%TO.P,U2,2,PB1*%
%TO.N,PortB1*%
X131232500Y-65110000D03*
%TO.P,U2,3,PB2*%
%TO.N,PortB2*%
X131232500Y-67650000D03*
%TO.P,U2,4,PB3*%
%TO.N,PortB3*%
X131232500Y-70190000D03*
%TO.P,U2,5,PB4*%
%TO.N,PortB4*%
X131232500Y-72730000D03*
%TO.P,U2,6,PB5*%
%TO.N,PortB5*%
X131232500Y-75270000D03*
%TO.P,U2,7,PB6*%
%TO.N,PortB6*%
X131232500Y-77810000D03*
%TO.P,U2,8,PB7*%
%TO.N,PortB7*%
X131232500Y-80350000D03*
%TO.P,U2,9,~{RESET}*%
%TO.N,Reset*%
X131232500Y-82890000D03*
%TO.P,U2,10,VCC*%
%TO.N,VCC*%
X131232500Y-85430000D03*
%TO.P,U2,11,GND*%
%TO.N,GND*%
X131232500Y-87970000D03*
%TO.P,U2,12,XTAL2*%
%TO.N,Net-(U2-XTAL2)*%
X131232500Y-90510000D03*
%TO.P,U2,13,XTAL1*%
%TO.N,Net-(U2-XTAL1)*%
X131232500Y-93050000D03*
%TO.P,U2,14,PD0*%
%TO.N,PortD0*%
X131232500Y-95590000D03*
%TO.P,U2,15,PD1*%
%TO.N,PortD1*%
X131232500Y-98130000D03*
%TO.P,U2,16,PD2*%
%TO.N,PortD2*%
X131232500Y-100670000D03*
%TO.P,U2,17,PD3*%
%TO.N,PortD3*%
X131232500Y-103210000D03*
%TO.P,U2,18,PD4*%
%TO.N,PortD4*%
X131232500Y-105750000D03*
%TO.P,U2,19,PD5*%
%TO.N,PortD5*%
X131232500Y-108290000D03*
%TO.P,U2,20,PD6*%
%TO.N,PortD6*%
X131232500Y-110830000D03*
%TO.P,U2,21,PD7*%
%TO.N,PortD7*%
X146472500Y-110830000D03*
%TO.P,U2,22,PC0*%
%TO.N,PortC0*%
X146472500Y-108290000D03*
%TO.P,U2,23,PC1*%
%TO.N,PortC1*%
X146472500Y-105750000D03*
%TO.P,U2,24,PC2*%
%TO.N,PortC2*%
X146472500Y-103210000D03*
%TO.P,U2,25,PC3*%
%TO.N,PortC3*%
X146472500Y-100670000D03*
%TO.P,U2,26,PC4*%
%TO.N,PortC4*%
X146472500Y-98130000D03*
%TO.P,U2,27,PC5*%
%TO.N,PortC5*%
X146472500Y-95590000D03*
%TO.P,U2,28,PC6*%
%TO.N,PortC6*%
X146472500Y-93050000D03*
%TO.P,U2,29,PC7*%
%TO.N,PortC7*%
X146472500Y-90510000D03*
%TO.P,U2,30,AVCC*%
%TO.N,VCC*%
X146472500Y-87970000D03*
%TO.P,U2,31,GND*%
%TO.N,GND*%
X146472500Y-85430000D03*
%TO.P,U2,32,AREF*%
%TO.N,Net-(U2-AREF)*%
X146472500Y-82890000D03*
%TO.P,U2,33,PA7*%
%TO.N,PortA7*%
X146472500Y-80350000D03*
%TO.P,U2,34,PA6*%
%TO.N,PortA6*%
X146472500Y-77810000D03*
%TO.P,U2,35,PA5*%
%TO.N,PortA5*%
X146472500Y-75270000D03*
%TO.P,U2,36,PA4*%
%TO.N,PortA4*%
X146472500Y-72730000D03*
%TO.P,U2,37,PA3*%
%TO.N,PortA3*%
X146472500Y-70190000D03*
%TO.P,U2,38,PA2*%
%TO.N,PortA2*%
X146472500Y-67650000D03*
%TO.P,U2,39,PA1*%
%TO.N,PortA1*%
X146472500Y-65110000D03*
%TO.P,U2,40,PA0*%
%TO.N,PortA0*%
X146472500Y-62570000D03*
%TD*%
D32*
%TO.P,J3,1,MISO*%
%TO.N,PortB6*%
X118000000Y-126790000D03*
D33*
%TO.P,J3,2,VCC*%
%TO.N,VCC*%
X118000000Y-124250000D03*
%TO.P,J3,3,SCK*%
%TO.N,PortB7*%
X120540000Y-126790000D03*
%TO.P,J3,4,MOSI*%
%TO.N,PortB5*%
X120540000Y-124250000D03*
%TO.P,J3,5,~{RST}*%
%TO.N,Reset*%
X123080000Y-126790000D03*
%TO.P,J3,6,GND*%
%TO.N,GND*%
X123080000Y-124250000D03*
%TD*%
D26*
%TO.P,R2,1*%
%TO.N,Net-(J13-Pin_16)*%
X85650000Y-123490000D03*
%TO.P,R2,2*%
%TO.N,Net-(Q17-D)*%
X87700000Y-123490000D03*
%TD*%
D16*
%TO.P,R16,1*%
%TO.N,Net-(J2-Pin_2)*%
X164662500Y-98050000D03*
%TO.P,R16,2*%
%TO.N,Net-(BAR2-A-Pad4)*%
X166737500Y-98050000D03*
%TD*%
D10*
%TO.P,SW8,1,1*%
%TO.N,VCC*%
X67750000Y-46750000D03*
X74250000Y-46750000D03*
%TO.P,SW8,2,2*%
%TO.N,/Buttons/Button7*%
X67750000Y-51250000D03*
X74250000Y-51250000D03*
%TD*%
D32*
%TO.P,J7,1,Pin_1*%
%TO.N,VCC*%
X135670000Y-126750000D03*
D33*
%TO.P,J7,2,Pin_2*%
%TO.N,PortD0*%
X135670000Y-124210000D03*
%TO.P,J7,3,Pin_3*%
%TO.N,PortD1*%
X138210000Y-126750000D03*
%TO.P,J7,4,Pin_4*%
%TO.N,PortD3*%
X138210000Y-124210000D03*
%TO.P,J7,5,Pin_5*%
%TO.N,PortD2*%
X140750000Y-126750000D03*
%TO.P,J7,6,Pin_6*%
%TO.N,GND*%
X140750000Y-124210000D03*
%TD*%
D10*
%TO.P,SW9,1,1*%
%TO.N,VCC*%
X67750000Y-55250000D03*
X74250000Y-55250000D03*
%TO.P,SW9,2,2*%
%TO.N,/Buttons/Button8*%
X67750000Y-59750000D03*
X74250000Y-59750000D03*
%TD*%
D16*
%TO.P,R9,1*%
%TO.N,/PORTS/PortA_Leds_VCC*%
X164300000Y-72850000D03*
%TO.P,R9,2*%
%TO.N,Net-(BAR1-A-Pad7)*%
X166375000Y-72850000D03*
%TD*%
D34*
%TO.P,Y1,1,1*%
%TO.N,Net-(U2-XTAL1)*%
X117500000Y-86950000D03*
%TO.P,Y1,2,2*%
%TO.N,Net-(U2-XTAL2)*%
X117500000Y-82070000D03*
%TD*%
D14*
%TO.P,R23,1*%
%TO.N,VCC*%
X143000000Y-97512500D03*
%TO.P,R23,2*%
%TO.N,PortC1*%
X143000000Y-100487500D03*
%TD*%
D13*
%TO.P,Q17,1,G*%
%TO.N,Net-(J14-Pin_2)*%
X87575000Y-121440000D03*
%TO.P,Q17,2,S*%
%TO.N,GND*%
X87575000Y-119540000D03*
%TO.P,Q17,3,D*%
%TO.N,Net-(Q17-D)*%
X85700000Y-120490000D03*
%TD*%
D18*
%TO.P,C7,2*%
%TO.N,GND*%
X113500000Y-85212500D03*
%TO.P,C7,1*%
%TO.N,Net-(U2-XTAL1)*%
X113500000Y-87287500D03*
%TD*%
D16*
%TO.P,C6,1*%
%TO.N,VCC*%
X148675000Y-88000000D03*
%TO.P,C6,2*%
%TO.N,GND*%
X150750000Y-88000000D03*
%TD*%
%TO.P,R6,1*%
%TO.N,/PORTS/PortA_Leds_VCC*%
X164300000Y-65350000D03*
%TO.P,R6,2*%
%TO.N,Net-(BAR1-A-Pad4)*%
X166375000Y-65350000D03*
%TD*%
%TO.P,R19,1*%
%TO.N,Net-(J2-Pin_2)*%
X164662500Y-105550000D03*
%TO.P,R19,2*%
%TO.N,Net-(BAR2-A-Pad7)*%
X166737500Y-105550000D03*
%TD*%
D32*
%TO.P,J8,1,Pin_1*%
%TO.N,VCC*%
X153170000Y-126750000D03*
D33*
%TO.P,J8,2,Pin_2*%
X153170000Y-124210000D03*
%TO.P,J8,3,Pin_3*%
%TO.N,PortC0*%
X155710000Y-126750000D03*
%TO.P,J8,4,Pin_4*%
%TO.N,PortC1*%
X155710000Y-124210000D03*
%TO.P,J8,5,Pin_5*%
%TO.N,GND*%
X158250000Y-126750000D03*
%TO.P,J8,6,Pin_6*%
%TO.N,PortD7*%
X158250000Y-124210000D03*
%TD*%
D11*
%TO.P,J14,1,Pin_1*%
%TO.N,VCC*%
X86175000Y-128990000D03*
D12*
%TO.P,J14,2,Pin_2*%
%TO.N,Net-(J14-Pin_2)*%
X88715000Y-128990000D03*
%TD*%
D35*
%TO.P,U1,1,Vin*%
%TO.N,Net-(D1-K)*%
X134897500Y-40442500D03*
D34*
%TO.P,U1,2,GND*%
%TO.N,GND*%
X132357500Y-40442500D03*
%TO.P,U1,3,Vout*%
%TO.N,VCC*%
X129817500Y-40442500D03*
%TD*%
D16*
%TO.P,R22,1*%
%TO.N,Net-(J2-Pin_2)*%
X164662500Y-113300000D03*
%TO.P,R22,2*%
%TO.N,Net-(BAR2-A-Pad10)*%
X166737500Y-113300000D03*
%TD*%
%TO.P,R3,1*%
%TO.N,/PORTS/PortA_Leds_VCC*%
X164300000Y-57600000D03*
%TO.P,R3,2*%
%TO.N,Net-(BAR1-A-Pad1)*%
X166375000Y-57600000D03*
%TD*%
D13*
%TO.P,Q3,1,G*%
%TO.N,PortA2*%
X184750000Y-65550000D03*
%TO.P,Q3,2,S*%
%TO.N,GND*%
X184750000Y-63650000D03*
%TO.P,Q3,3,D*%
%TO.N,/PORTS/PortA2_LED*%
X182875000Y-64600000D03*
%TD*%
D11*
%TO.P,J1,1,Pin_1*%
%TO.N,VCC*%
X176550000Y-54100000D03*
D12*
%TO.P,J1,2,Pin_2*%
%TO.N,/PORTS/PortA_Leds_VCC*%
X174010000Y-54100000D03*
%TD*%
D36*
%TO.P,D1,1,K*%
%TO.N,Net-(D1-K)*%
X142050000Y-44250000D03*
%TO.P,D1,2,A*%
%TO.N,+24V*%
X147450000Y-44250000D03*
%TD*%
D16*
%TO.P,R13,1*%
%TO.N,Net-(J2-Pin_2)*%
X164662500Y-90300000D03*
%TO.P,R13,2*%
%TO.N,Net-(BAR2-A-Pad1)*%
X166737500Y-90300000D03*
%TD*%
D13*
%TO.P,Q15,1,G*%
%TO.N,PortC3*%
X184812500Y-101800000D03*
%TO.P,Q15,2,S*%
%TO.N,GND*%
X184812500Y-99900000D03*
%TO.P,Q15,3,D*%
%TO.N,/PORTS/PortC3_LED*%
X182937500Y-100850000D03*
%TD*%
D10*
%TO.P,SW4,1,1*%
%TO.N,GND*%
X86775000Y-46750000D03*
X93275000Y-46750000D03*
%TO.P,SW4,2,2*%
%TO.N,/Buttons/Button3*%
X86775000Y-51250000D03*
X93275000Y-51250000D03*
%TD*%
D25*
%TO.P,C12,1*%
%TO.N,VCC*%
X124000000Y-50925000D03*
%TO.P,C12,2*%
%TO.N,GND*%
X124000000Y-53000000D03*
%TD*%
D11*
%TO.P,J15,1,Pin_1*%
%TO.N,PortB0*%
X124250000Y-62625000D03*
D12*
%TO.P,J15,2,Pin_2*%
%TO.N,PortB1*%
X124250000Y-65165000D03*
%TO.P,J15,3,Pin_3*%
%TO.N,PortB2*%
X124250000Y-67705000D03*
%TO.P,J15,4,Pin_4*%
%TO.N,PortB3*%
X124250000Y-70245000D03*
%TO.P,J15,5,Pin_5*%
%TO.N,PortB4*%
X124250000Y-72785000D03*
%TO.P,J15,6,Pin_6*%
%TO.N,PortB5*%
X124250000Y-75325000D03*
%TO.P,J15,7,Pin_7*%
%TO.N,PortB6*%
X124250000Y-77865000D03*
%TO.P,J15,8,Pin_8*%
%TO.N,PortB7*%
X124250000Y-80405000D03*
%TD*%
D16*
%TO.P,R12,1*%
%TO.N,VCC*%
X164300000Y-80350000D03*
%TO.P,R12,2*%
%TO.N,Net-(BAR1-A-Pad10)*%
X166375000Y-80350000D03*
%TD*%
%TO.P,R5,1*%
%TO.N,/PORTS/PortA_Leds_VCC*%
X164300000Y-62600000D03*
%TO.P,R5,2*%
%TO.N,Net-(BAR1-A-Pad3)*%
X166375000Y-62600000D03*
%TD*%
D18*
%TO.P,C5,1*%
%TO.N,VCC*%
X85700000Y-87490000D03*
%TO.P,C5,2*%
%TO.N,GND*%
X85700000Y-85415000D03*
%TD*%
D11*
%TO.P,J11,1,Pin_1*%
%TO.N,Net-(J10-Pin_4)*%
X118500000Y-105725000D03*
D12*
%TO.P,J11,2,Pin_2*%
%TO.N,VCC*%
X118500000Y-108265000D03*
%TD*%
D11*
%TO.P,J16,1,Pin_1*%
%TO.N,PortD0*%
X124000000Y-90590000D03*
D12*
%TO.P,J16,2,Pin_2*%
%TO.N,PortD1*%
X124000000Y-93130000D03*
%TO.P,J16,3,Pin_3*%
%TO.N,PortD2*%
X124000000Y-95670000D03*
%TO.P,J16,4,Pin_4*%
%TO.N,PortD3*%
X124000000Y-98210000D03*
%TO.P,J16,5,Pin_5*%
%TO.N,PortD4*%
X124000000Y-100750000D03*
%TO.P,J16,6,Pin_6*%
%TO.N,PortD5*%
X124000000Y-103290000D03*
%TO.P,J16,7,Pin_7*%
%TO.N,PortD6*%
X124000000Y-105830000D03*
%TO.P,J16,8,Pin_8*%
%TO.N,PortD7*%
X124000000Y-108370000D03*
%TD*%
D15*
%TO.P,R27,1*%
%TO.N,VCC*%
X99250000Y-34500000D03*
%TO.P,R27,2*%
%TO.N,/Buttons/Button1*%
X96275000Y-34500000D03*
%TD*%
D37*
%TO.N,GND*%
X186000000Y-54000000D03*
X186500000Y-57000000D03*
X186500000Y-60500000D03*
X186500000Y-64000000D03*
X186500000Y-67500000D03*
X186500000Y-71000000D03*
X186500000Y-74500000D03*
X186500000Y-78000000D03*
X186500000Y-81000000D03*
X186500000Y-87000000D03*
X186500000Y-89500000D03*
X186500000Y-93000000D03*
X186500000Y-96500000D03*
X186500000Y-100000000D03*
X186500000Y-103500000D03*
X186500000Y-107000000D03*
X186500000Y-110500000D03*
X186500000Y-114000000D03*
X184000000Y-121500000D03*
X182000000Y-129000000D03*
%TO.N,PortD7*%
X152250000Y-110750000D03*
%TO.N,RESET*%
X182250000Y-125250000D03*
%TO.N,VCC*%
X178000000Y-125780000D03*
X182250000Y-124000000D03*
D38*
%TO.N,GND*%
X115500000Y-84250000D03*
X85200000Y-118740000D03*
X80250000Y-54000000D03*
X174750000Y-120500000D03*
X142500000Y-87500000D03*
X81250000Y-44750000D03*
%TO.N,VCC*%
X103500000Y-50925000D03*
X92750000Y-80250000D03*
X172250000Y-117750000D03*
%TO.N,PortA0*%
X180500000Y-58750000D03*
%TO.N,PortA1*%
X180750000Y-62250000D03*
%TO.N,PortA2*%
X180750000Y-65750000D03*
%TO.N,PortA3*%
X180750000Y-69000000D03*
%TO.N,PortA4*%
X180750000Y-72500000D03*
%TO.N,PortA5*%
X181999135Y-76002489D03*
%TO.N,PortA6*%
X182578502Y-79549999D03*
%TO.N,PortA7*%
X182500000Y-83050000D03*
%TO.N,PortC0*%
X182750000Y-92000000D03*
%TO.N,PortC4*%
X174750000Y-124000000D03*
X181750000Y-106000000D03*
%TO.N,PortC1*%
X182075000Y-95500000D03*
%TO.N,PortC5*%
X182250000Y-109500000D03*
X150458364Y-110041636D03*
%TO.N,PortC2*%
X182000000Y-99250000D03*
X174750000Y-122000000D03*
%TO.N,PortC6*%
X183000000Y-113000000D03*
%TO.N,PortC3*%
X159775000Y-100750000D03*
X182000000Y-102750000D03*
%TO.N,PortC7*%
X180500000Y-115750000D03*
%TO.N,PortB6*%
X122750000Y-121500000D03*
%TO.N,PortD3*%
X135732500Y-103210000D03*
%TO.N,PortD1*%
X135732500Y-99000000D03*
%TO.N,PortD0*%
X135282500Y-95590000D03*
%TO.N,PortD2*%
X138500000Y-101000000D03*
%TD*%
D39*
%TO.N,GND*%
X185900000Y-54100000D02*
X186000000Y-54000000D01*
X184587500Y-54100000D02*
X185900000Y-54100000D01*
D40*
X186150000Y-56650000D02*
X186500000Y-57000000D01*
X184750000Y-56650000D02*
X186150000Y-56650000D01*
X186150000Y-60150000D02*
X186500000Y-60500000D01*
X184750000Y-60150000D02*
X186150000Y-60150000D01*
X186150000Y-63650000D02*
X186500000Y-64000000D01*
X184750000Y-63650000D02*
X186150000Y-63650000D01*
X186100000Y-67100000D02*
X186500000Y-67500000D01*
X184750000Y-67100000D02*
X186100000Y-67100000D01*
X186100000Y-70600000D02*
X186500000Y-71000000D01*
X184750000Y-70600000D02*
X186100000Y-70600000D01*
X186100000Y-74100000D02*
X186500000Y-74500000D01*
X184750000Y-74100000D02*
X186100000Y-74100000D01*
X186100000Y-77600000D02*
X186500000Y-78000000D01*
X184750000Y-77600000D02*
X186100000Y-77600000D01*
X186400000Y-81100000D02*
X186500000Y-81000000D01*
X184750000Y-81100000D02*
X186400000Y-81100000D01*
X186300000Y-86800000D02*
X186500000Y-87000000D01*
X184737500Y-86800000D02*
X186300000Y-86800000D01*
X186400000Y-89400000D02*
X186500000Y-89500000D01*
X184812500Y-89400000D02*
X186400000Y-89400000D01*
X186400000Y-92900000D02*
X186500000Y-93000000D01*
X184812500Y-92900000D02*
X186400000Y-92900000D01*
X186400000Y-96400000D02*
X186500000Y-96500000D01*
X184812500Y-96400000D02*
X186400000Y-96400000D01*
X186400000Y-99900000D02*
X186500000Y-100000000D01*
X184812500Y-99900000D02*
X186400000Y-99900000D01*
X186400000Y-103400000D02*
X186500000Y-103500000D01*
X184812500Y-103400000D02*
X186400000Y-103400000D01*
X186400000Y-106900000D02*
X186500000Y-107000000D01*
X184812500Y-106900000D02*
X186400000Y-106900000D01*
D39*
X186400000Y-110400000D02*
X186500000Y-110500000D01*
X184812500Y-110400000D02*
X186400000Y-110400000D01*
D40*
X186350000Y-113850000D02*
X186500000Y-114000000D01*
X184750000Y-113850000D02*
X186350000Y-113850000D01*
X184200000Y-121700000D02*
X184000000Y-121500000D01*
X184200000Y-122710000D02*
X184200000Y-121700000D01*
D39*
X182990000Y-129000000D02*
X182000000Y-129000000D01*
X184200000Y-127790000D02*
X182990000Y-129000000D01*
%TO.N,PortC0*%
X140500000Y-102317500D02*
X146472500Y-108290000D01*
X140500000Y-100487500D02*
X140500000Y-102317500D01*
%TO.N,PortC1*%
X143000000Y-102277500D02*
X146472500Y-105750000D01*
X143000000Y-100487500D02*
X143000000Y-102277500D01*
%TO.N,VCC*%
X143000000Y-91442500D02*
X146472500Y-87970000D01*
X143000000Y-97512500D02*
X143000000Y-91442500D01*
X140500000Y-97512500D02*
X143000000Y-97512500D01*
D40*
%TO.N,PortD2*%
X138500000Y-101000000D02*
X138170000Y-100670000D01*
X138170000Y-100670000D02*
X131232500Y-100670000D01*
D39*
%TO.N,PortD7*%
X148060864Y-109241636D02*
X146472500Y-110830000D01*
X152250000Y-110701901D02*
X150789735Y-109241636D01*
X152250000Y-110750000D02*
X152250000Y-110701901D01*
X150789735Y-109241636D02*
X148060864Y-109241636D01*
%TO.N,Net-(U2-XTAL1)*%
X122660000Y-86950000D02*
X117500000Y-86950000D01*
X128760000Y-93050000D02*
X122660000Y-86950000D01*
X131232500Y-93050000D02*
X128760000Y-93050000D01*
%TO.N,Net-(U2-XTAL2)*%
X119897756Y-82070000D02*
X117500000Y-82070000D01*
X128337756Y-90510000D02*
X119897756Y-82070000D01*
X131232500Y-90510000D02*
X128337756Y-90510000D01*
%TO.N,RESET*%
X184200000Y-125250000D02*
X182250000Y-125250000D01*
%TO.N,VCC*%
X178740000Y-126520000D02*
X178000000Y-125780000D01*
X180300000Y-126520000D02*
X178740000Y-126520000D01*
X182270000Y-123980000D02*
X182250000Y-124000000D01*
X184200000Y-123980000D02*
X182270000Y-123980000D01*
D40*
%TO.N,Net-(BAR1-A-Pad5)*%
X166375000Y-67850000D02*
X169215000Y-67850000D01*
X169215000Y-67850000D02*
X169375000Y-67690000D01*
%TO.N,Net-(BAR1-A-Pad10)*%
X166375000Y-80350000D02*
X169335000Y-80350000D01*
X169335000Y-80350000D02*
X169375000Y-80390000D01*
%TO.N,Net-(BAR1-A-Pad9)*%
X166375000Y-77850000D02*
X169375000Y-77850000D01*
%TO.N,Net-(BAR1-A-Pad2)*%
X169345000Y-60100000D02*
X169375000Y-60070000D01*
X166375000Y-60100000D02*
X169345000Y-60100000D01*
%TO.N,Net-(BAR1-A-Pad3)*%
X169365000Y-62600000D02*
X169375000Y-62610000D01*
X166375000Y-62600000D02*
X169365000Y-62600000D01*
%TO.N,Net-(BAR1-A-Pad7)*%
X166375000Y-72850000D02*
X169295000Y-72850000D01*
X169295000Y-72850000D02*
X169375000Y-72770000D01*
%TO.N,Net-(BAR1-A-Pad1)*%
X169305000Y-57600000D02*
X169375000Y-57530000D01*
X166375000Y-57600000D02*
X169305000Y-57600000D01*
%TO.N,Net-(BAR1-A-Pad6)*%
X166375000Y-70350000D02*
X169255000Y-70350000D01*
X169255000Y-70350000D02*
X169375000Y-70230000D01*
%TO.N,Net-(BAR1-A-Pad4)*%
X169175000Y-65350000D02*
X169375000Y-65150000D01*
X166375000Y-65350000D02*
X169175000Y-65350000D01*
%TO.N,Net-(BAR1-A-Pad8)*%
X166375000Y-75350000D02*
X169335000Y-75350000D01*
X169335000Y-75350000D02*
X169375000Y-75310000D01*
%TO.N,GND*%
X178327500Y-80390000D02*
X176995000Y-80390000D01*
D41*
X80250000Y-42750000D02*
X80250000Y-43750000D01*
D42*
X114537500Y-85212500D02*
X115500000Y-84250000D01*
X113500000Y-85212500D02*
X114537500Y-85212500D01*
D41*
X80250000Y-59750000D02*
X80250000Y-54000000D01*
X80250000Y-43750000D02*
X81250000Y-44750000D01*
D42*
X131232500Y-87970000D02*
X142030000Y-87970000D01*
D40*
X184737500Y-86800000D02*
X178327500Y-80390000D01*
X184812500Y-86875000D02*
X184737500Y-86800000D01*
D41*
X146472500Y-85430000D02*
X149320000Y-85430000D01*
D42*
X158000000Y-53000000D02*
X154330000Y-53000000D01*
X127920000Y-53000000D02*
X128170000Y-53250000D01*
D41*
X149320000Y-85430000D02*
X149500000Y-85250000D01*
D42*
X113500000Y-83037500D02*
X113500000Y-85212500D01*
D41*
X150750000Y-86500000D02*
X149500000Y-85250000D01*
X83000000Y-34500000D02*
X86750000Y-38250000D01*
X80225000Y-53975000D02*
X80250000Y-54000000D01*
X80237500Y-34500000D02*
X83000000Y-34500000D01*
D40*
X175425000Y-121175000D02*
X174750000Y-120500000D01*
D42*
X124000000Y-53000000D02*
X127920000Y-53000000D01*
D41*
X81915000Y-85415000D02*
X81750000Y-85250000D01*
X85700000Y-85415000D02*
X81915000Y-85415000D01*
D40*
X184587500Y-56487500D02*
X184750000Y-56650000D01*
D41*
X89650000Y-119540000D02*
X89950000Y-119240000D01*
X87575000Y-119540000D02*
X86000000Y-119540000D01*
D42*
X131232500Y-87970000D02*
X129877500Y-89325000D01*
D41*
X80225000Y-51250000D02*
X80225000Y-53975000D01*
X150750000Y-88000000D02*
X150750000Y-86500000D01*
D42*
X154330000Y-53000000D02*
X154080000Y-53250000D01*
X129877500Y-89325000D02*
X128750000Y-89325000D01*
D41*
X87575000Y-119540000D02*
X89650000Y-119540000D01*
D42*
X142030000Y-87970000D02*
X142500000Y-87500000D01*
D41*
X86000000Y-119540000D02*
X85200000Y-118740000D01*
D40*
X184750000Y-63650000D02*
X184750000Y-63750000D01*
D42*
%TO.N,Net-(D1-K)*%
X138242500Y-40442500D02*
X142050000Y-44250000D01*
X134897500Y-40442500D02*
X138242500Y-40442500D01*
X145867677Y-40432323D02*
X142050000Y-44250000D01*
X145867677Y-33000000D02*
X145867677Y-40432323D01*
%TO.N,VCC*%
X129412500Y-87250000D02*
X131232500Y-85430000D01*
D41*
X86175000Y-128990000D02*
X84825000Y-128990000D01*
D42*
X131232500Y-85430000D02*
X139880000Y-76782500D01*
D41*
X131090000Y-85287500D02*
X131232500Y-85430000D01*
D42*
X135670000Y-126750000D02*
X134080000Y-128340000D01*
X145530000Y-87970000D02*
X142990000Y-85430000D01*
D41*
X99250000Y-34500000D02*
X95950000Y-31200000D01*
X74250000Y-46750000D02*
X67750000Y-46750000D01*
D42*
X120050000Y-122200000D02*
X120050000Y-109815000D01*
X130710000Y-50710000D02*
X128170000Y-50710000D01*
X88250000Y-84000000D02*
X88250000Y-85145512D01*
D41*
X67750000Y-31750000D02*
X74250000Y-38250000D01*
D42*
X82050000Y-87490000D02*
X81750000Y-87790000D01*
D41*
X75700000Y-31200000D02*
X74250000Y-29750000D01*
D42*
X139880000Y-76782500D02*
X139880000Y-54750000D01*
X95647032Y-124250000D02*
X89357032Y-130540000D01*
X135790000Y-50710000D02*
X133250000Y-50710000D01*
X175279000Y-55371000D02*
X175279000Y-85191500D01*
X124000000Y-50925000D02*
X103500000Y-50925000D01*
X172250000Y-91337500D02*
X176837500Y-86750000D01*
D41*
X99500000Y-51250000D02*
X99500000Y-43250000D01*
D42*
X151540000Y-50710000D02*
X149000000Y-50710000D01*
X129817500Y-49817500D02*
X130710000Y-50710000D01*
X182512500Y-54100000D02*
X176550000Y-54100000D01*
D41*
X99500000Y-43250000D02*
X99500000Y-34750000D01*
D42*
X133250000Y-50710000D02*
X130710000Y-50710000D01*
D41*
X69200000Y-41700000D02*
X74250000Y-46750000D01*
D42*
X116450000Y-127790430D02*
X116450000Y-124597919D01*
X129817500Y-40442500D02*
X129817500Y-49817500D01*
X139880000Y-54750000D02*
X143920000Y-50710000D01*
X142990000Y-85430000D02*
X131232500Y-85430000D01*
X88250000Y-84000000D02*
X89000000Y-84000000D01*
X158000000Y-50925000D02*
X173375000Y-50925000D01*
X99825000Y-50925000D02*
X99500000Y-51250000D01*
X116450000Y-124597919D02*
X116797919Y-124250000D01*
X125750000Y-36375000D02*
X129817500Y-40442500D01*
X87725000Y-130540000D02*
X86175000Y-128990000D01*
D41*
X148675000Y-88000000D02*
X146502500Y-88000000D01*
D42*
X89357032Y-130540000D02*
X87725000Y-130540000D01*
X124215000Y-50710000D02*
X124000000Y-50925000D01*
X172250000Y-117750000D02*
X172250000Y-91337500D01*
X118000000Y-124250000D02*
X95647032Y-124250000D01*
D41*
X67750000Y-48750000D02*
X74250000Y-55250000D01*
D42*
X120050000Y-109815000D02*
X118500000Y-108265000D01*
X134080000Y-128340000D02*
X116999570Y-128340000D01*
D40*
X178295000Y-127695000D02*
X170885000Y-127695000D01*
D42*
X88250000Y-85145512D02*
X85905512Y-87490000D01*
X116797919Y-124250000D02*
X118000000Y-124250000D01*
X157785000Y-50710000D02*
X158000000Y-50925000D01*
X173375000Y-50925000D02*
X176550000Y-54100000D01*
D40*
X180300000Y-126520000D02*
X179470000Y-126520000D01*
D42*
X164300000Y-81075000D02*
X168425000Y-85200000D01*
D41*
X84825000Y-128990000D02*
X80450000Y-124615000D01*
D42*
X153170000Y-124210000D02*
X153170000Y-126750000D01*
D41*
X146502500Y-88000000D02*
X146472500Y-87970000D01*
D42*
X85905512Y-87490000D02*
X85700000Y-87490000D01*
D41*
X80450000Y-124615000D02*
X80450000Y-122110000D01*
D42*
X154080000Y-50710000D02*
X157785000Y-50710000D01*
X146460000Y-50710000D02*
X143920000Y-50710000D01*
X118000000Y-124250000D02*
X120050000Y-122200000D01*
X175287500Y-85200000D02*
X176837500Y-86750000D01*
X175279000Y-85191500D02*
X176837500Y-86750000D01*
X89000000Y-84000000D02*
X92750000Y-80250000D01*
X168425000Y-85200000D02*
X175287500Y-85200000D01*
D41*
X99250000Y-59750000D02*
X99250000Y-51500000D01*
D42*
X146472500Y-87970000D02*
X145530000Y-87970000D01*
X128170000Y-50710000D02*
X124215000Y-50710000D01*
X137260000Y-128340000D02*
X135670000Y-126750000D01*
X116999570Y-128340000D02*
X116450000Y-127790430D01*
D41*
X95950000Y-31200000D02*
X75700000Y-31200000D01*
D42*
X164300000Y-80350000D02*
X164300000Y-81075000D01*
X176550000Y-54100000D02*
X175279000Y-55371000D01*
X85700000Y-87490000D02*
X82050000Y-87490000D01*
X143920000Y-50710000D02*
X138330000Y-50710000D01*
D41*
X74250000Y-29750000D02*
X67750000Y-29750000D01*
X74250000Y-38250000D02*
X67750000Y-38250000D01*
X67750000Y-38250000D02*
X69200000Y-39700000D01*
X67750000Y-46750000D02*
X67750000Y-48750000D01*
D42*
X182662500Y-86800000D02*
X176887500Y-86800000D01*
X125750000Y-32750000D02*
X125750000Y-36375000D01*
X149000000Y-50710000D02*
X146460000Y-50710000D01*
X153170000Y-124210000D02*
X149040000Y-128340000D01*
X154080000Y-50710000D02*
X151540000Y-50710000D01*
D40*
X179470000Y-126520000D02*
X178295000Y-127695000D01*
D41*
X74250000Y-55250000D02*
X67750000Y-55250000D01*
X99250000Y-51500000D02*
X99500000Y-51250000D01*
D42*
X176887500Y-86800000D02*
X176837500Y-86750000D01*
D41*
X67750000Y-29750000D02*
X67750000Y-31750000D01*
D42*
X103500000Y-50925000D02*
X99825000Y-50925000D01*
D41*
X80450000Y-122110000D02*
X81750000Y-120810000D01*
D42*
X149040000Y-128340000D02*
X137260000Y-128340000D01*
D41*
X69200000Y-39700000D02*
X69200000Y-41700000D01*
X99500000Y-34750000D02*
X99250000Y-34500000D01*
D42*
X138330000Y-50710000D02*
X135790000Y-50710000D01*
D41*
X128750000Y-85287500D02*
X131090000Y-85287500D01*
D42*
X128750000Y-87250000D02*
X129412500Y-87250000D01*
D40*
X170885000Y-127695000D02*
X169710000Y-128870000D01*
D41*
%TO.N,Net-(U2-XTAL1)*%
X117500000Y-86950000D02*
X113837500Y-86950000D01*
X113837500Y-86950000D02*
X113500000Y-87287500D01*
%TO.N,Net-(U2-XTAL2)*%
X117500000Y-82070000D02*
X114607500Y-82070000D01*
X114607500Y-82070000D02*
X113500000Y-80962500D01*
%TO.N,Net-(U2-AREF)*%
X149215000Y-82890000D02*
X149500000Y-83175000D01*
X146472500Y-82890000D02*
X149215000Y-82890000D01*
D42*
%TO.N,+24V*%
X155000000Y-44080000D02*
X147620000Y-44080000D01*
X147620000Y-44080000D02*
X147450000Y-44250000D01*
D40*
%TO.N,PortA0*%
X180700000Y-58550000D02*
X184750000Y-58550000D01*
X180500000Y-58750000D02*
X180700000Y-58550000D01*
D42*
X146472500Y-62570000D02*
X156690000Y-62570000D01*
X156690000Y-62570000D02*
X156750000Y-62510000D01*
D40*
%TO.N,Net-(BAR2-A-Pad4)*%
X166737500Y-98050000D02*
X169332500Y-98050000D01*
X169332500Y-98050000D02*
X169535000Y-97847500D01*
%TO.N,Net-(BAR2-A-Pad1)*%
X169462500Y-90300000D02*
X169535000Y-90227500D01*
X166737500Y-90300000D02*
X169462500Y-90300000D01*
%TO.N,Net-(BAR2-A-Pad6)*%
X166737500Y-103050000D02*
X169412500Y-103050000D01*
X169412500Y-103050000D02*
X169535000Y-102927500D01*
%TO.N,Net-(BAR2-A-Pad2)*%
X166737500Y-93050000D02*
X169252500Y-93050000D01*
X169252500Y-93050000D02*
X169535000Y-92767500D01*
%TO.N,Net-(BAR2-A-Pad3)*%
X166737500Y-95550000D02*
X169292500Y-95550000D01*
X169292500Y-95550000D02*
X169535000Y-95307500D01*
%TO.N,Net-(BAR2-A-Pad10)*%
X169322500Y-113300000D02*
X169535000Y-113087500D01*
X166737500Y-113300000D02*
X169322500Y-113300000D01*
%TO.N,Net-(BAR2-A-Pad5)*%
X166737500Y-100550000D02*
X169372500Y-100550000D01*
X169372500Y-100550000D02*
X169535000Y-100387500D01*
%TO.N,Net-(BAR2-A-Pad7)*%
X169452500Y-105550000D02*
X169535000Y-105467500D01*
X166737500Y-105550000D02*
X169452500Y-105550000D01*
%TO.N,Net-(BAR2-A-Pad9)*%
X166737500Y-110550000D02*
X169532500Y-110550000D01*
X169532500Y-110550000D02*
X169535000Y-110547500D01*
%TO.N,Net-(BAR2-A-Pad8)*%
X169492500Y-108050000D02*
X169535000Y-108007500D01*
X166737500Y-108050000D02*
X169492500Y-108050000D01*
D41*
%TO.N,Net-(J2-Pin_2)*%
X164662500Y-100550000D02*
X164662500Y-103050000D01*
X168212500Y-86750000D02*
X164662500Y-90300000D01*
X164662500Y-95550000D02*
X164662500Y-98050000D01*
X164662500Y-98050000D02*
X164662500Y-100550000D01*
X164662500Y-93050000D02*
X164662500Y-95550000D01*
X164662500Y-110550000D02*
X164662500Y-113300000D01*
X164662500Y-90300000D02*
X164662500Y-93050000D01*
X164662500Y-103050000D02*
X164662500Y-105550000D01*
X174297500Y-86750000D02*
X168212500Y-86750000D01*
X164662500Y-108050000D02*
X164662500Y-110550000D01*
X164662500Y-105550000D02*
X164662500Y-108050000D01*
D40*
%TO.N,PortA1*%
X180750000Y-62250000D02*
X180950000Y-62050000D01*
D42*
X156690000Y-65110000D02*
X156750000Y-65050000D01*
D40*
X180950000Y-62050000D02*
X184750000Y-62050000D01*
D42*
X146472500Y-65110000D02*
X156690000Y-65110000D01*
%TO.N,PortA2*%
X156690000Y-67650000D02*
X156750000Y-67590000D01*
X146472500Y-67650000D02*
X156690000Y-67650000D01*
D40*
X180750000Y-65750000D02*
X180950000Y-65550000D01*
X180950000Y-65550000D02*
X184750000Y-65550000D01*
%TO.N,PortA3*%
X180750000Y-69000000D02*
X184750000Y-69000000D01*
D42*
X156690000Y-70190000D02*
X156750000Y-70130000D01*
X146472500Y-70190000D02*
X156690000Y-70190000D01*
D40*
%TO.N,PortA4*%
X180750000Y-72500000D02*
X184750000Y-72500000D01*
D42*
X156690000Y-72730000D02*
X156750000Y-72670000D01*
X146472500Y-72730000D02*
X156690000Y-72730000D01*
%TO.N,PortA5*%
X146472500Y-75270000D02*
X156690000Y-75270000D01*
D40*
X182001624Y-76000000D02*
X184750000Y-76000000D01*
X181999135Y-76002489D02*
X182001624Y-76000000D01*
D42*
X156690000Y-75270000D02*
X156750000Y-75210000D01*
%TO.N,PortA6*%
X156690000Y-77810000D02*
X156750000Y-77750000D01*
D40*
X184700001Y-79549999D02*
X184750000Y-79500000D01*
D42*
X146472500Y-77810000D02*
X156690000Y-77810000D01*
D40*
X182578502Y-79549999D02*
X184700001Y-79549999D01*
%TO.N,PortA7*%
X184700000Y-83050000D02*
X184750000Y-83000000D01*
X182500000Y-83050000D02*
X184700000Y-83050000D01*
D42*
X146472500Y-80350000D02*
X156690000Y-80350000D01*
X156690000Y-80350000D02*
X156750000Y-80290000D01*
D40*
%TO.N,PortC0*%
X182750000Y-92000000D02*
X183500000Y-91250000D01*
X183500000Y-91250000D02*
X183550000Y-91300000D01*
D42*
X156670000Y-108290000D02*
X156750000Y-108370000D01*
X146472500Y-108290000D02*
X156670000Y-108290000D01*
D40*
X183550000Y-91300000D02*
X184812500Y-91300000D01*
%TO.N,PortC4*%
X158950000Y-112950000D02*
X158950000Y-100410000D01*
X158950000Y-100410000D02*
X156750000Y-98210000D01*
X182500000Y-106000000D02*
X183200000Y-105300000D01*
X181750000Y-106000000D02*
X182500000Y-106000000D01*
X170885000Y-120075000D02*
X166075000Y-120075000D01*
X169710000Y-123790000D02*
X170885000Y-122615000D01*
X180300000Y-123980000D02*
X174770000Y-123980000D01*
D42*
X146472500Y-98130000D02*
X156670000Y-98130000D01*
D40*
X183200000Y-105300000D02*
X184812500Y-105300000D01*
X170885000Y-122615000D02*
X170885000Y-120075000D01*
D42*
X156670000Y-98130000D02*
X156750000Y-98210000D01*
D40*
X166075000Y-120075000D02*
X158950000Y-112950000D01*
X174770000Y-123980000D02*
X174750000Y-124000000D01*
D42*
%TO.N,PortC1*%
X146472500Y-105750000D02*
X156670000Y-105750000D01*
D40*
X182075000Y-95500000D02*
X184112500Y-95500000D01*
D42*
X156670000Y-105750000D02*
X156750000Y-105830000D01*
D40*
X184112500Y-95500000D02*
X184812500Y-94800000D01*
%TO.N,PortC5*%
X160757600Y-116600000D02*
X162000000Y-117842400D01*
X182250000Y-109500000D02*
X182950000Y-108800000D01*
D42*
X146472500Y-95590000D02*
X156670000Y-95590000D01*
D40*
X156600000Y-116600000D02*
X160757600Y-116600000D01*
X162000000Y-117842400D02*
X162000000Y-123700000D01*
X182950000Y-108800000D02*
X184812500Y-108800000D01*
X150458364Y-110458364D02*
X156600000Y-116600000D01*
X180300000Y-127790000D02*
X178045000Y-130045000D01*
X171075000Y-130045000D02*
X169710000Y-131410000D01*
X150458364Y-110041636D02*
X150458364Y-110458364D01*
X178045000Y-130045000D02*
X171075000Y-130045000D01*
X162000000Y-123700000D02*
X169710000Y-131410000D01*
D42*
X156670000Y-95590000D02*
X156750000Y-95670000D01*
D40*
%TO.N,PortC2*%
X158500000Y-113136396D02*
X158500000Y-105040000D01*
X158500000Y-105040000D02*
X156750000Y-103290000D01*
D42*
X146472500Y-103210000D02*
X156670000Y-103210000D01*
D40*
X181130000Y-122710000D02*
X180300000Y-122710000D01*
X182000000Y-99250000D02*
X183862500Y-99250000D01*
D42*
X156670000Y-103210000D02*
X156750000Y-103290000D01*
D40*
X183862500Y-99250000D02*
X184812500Y-98300000D01*
X174750000Y-122000000D02*
X175460000Y-122710000D01*
X175460000Y-122710000D02*
X181130000Y-122710000D01*
X166613604Y-121250000D02*
X158500000Y-113136396D01*
X169710000Y-121250000D02*
X166613604Y-121250000D01*
%TO.N,PortC6*%
X184112500Y-113000000D02*
X184812500Y-112300000D01*
D42*
X156670000Y-93050000D02*
X156750000Y-93130000D01*
D40*
X183000000Y-113000000D02*
X184112500Y-113000000D01*
D42*
X146472500Y-93050000D02*
X156670000Y-93050000D01*
D40*
%TO.N,PortC3*%
X182000000Y-102750000D02*
X182850000Y-102750000D01*
X180300000Y-125250000D02*
X180205000Y-125155000D01*
X166261396Y-119625000D02*
X159775000Y-113138604D01*
X170885000Y-125155000D02*
X170885000Y-123303299D01*
D42*
X146472500Y-100670000D02*
X156670000Y-100670000D01*
X156670000Y-100670000D02*
X156750000Y-100750000D01*
D40*
X173425000Y-121736701D02*
X173425000Y-120763299D01*
X183800000Y-101800000D02*
X184812500Y-101800000D01*
X170885000Y-123303299D02*
X171763299Y-122425000D01*
X172736701Y-122425000D02*
X173425000Y-121736701D01*
X170885000Y-125155000D02*
X169710000Y-126330000D01*
X172286701Y-119625000D02*
X166261396Y-119625000D01*
X171763299Y-122425000D02*
X172736701Y-122425000D01*
X159775000Y-113138604D02*
X159775000Y-100750000D01*
X180205000Y-125155000D02*
X170885000Y-125155000D01*
X182850000Y-102750000D02*
X183800000Y-101800000D01*
X173425000Y-120763299D02*
X172286701Y-119625000D01*
D42*
%TO.N,PortC7*%
X146472500Y-90510000D02*
X156670000Y-90510000D01*
D40*
X180500000Y-115750000D02*
X184750000Y-115750000D01*
D42*
X156670000Y-90510000D02*
X156750000Y-90590000D01*
D41*
%TO.N,/PORTS/PortA1_LED*%
X182875000Y-61100000D02*
X178025000Y-61100000D01*
X178025000Y-61100000D02*
X176995000Y-60070000D01*
%TO.N,/PORTS/PortA0_LED*%
X177065000Y-57600000D02*
X176995000Y-57530000D01*
X182875000Y-57600000D02*
X177065000Y-57600000D01*
%TO.N,/PORTS/PortA5_LED*%
X182875000Y-75050000D02*
X181815000Y-75050000D01*
X181815000Y-75050000D02*
X176995000Y-70230000D01*
%TO.N,/PORTS/PortA2_LED*%
X182875000Y-64600000D02*
X178985000Y-64600000D01*
X178985000Y-64600000D02*
X176995000Y-62610000D01*
%TO.N,/PORTS/PortA3_LED*%
X182875000Y-68050000D02*
X179895000Y-68050000D01*
X179895000Y-68050000D02*
X176995000Y-65150000D01*
%TO.N,/PORTS/PortA6_LED*%
X177095000Y-72770000D02*
X176995000Y-72770000D01*
X182875000Y-78550000D02*
X177095000Y-72770000D01*
%TO.N,/PORTS/PortA4_LED*%
X180855000Y-71550000D02*
X176995000Y-67690000D01*
X182875000Y-71550000D02*
X180855000Y-71550000D01*
%TO.N,/PORTS/PortA7_LED*%
X182875000Y-82050000D02*
X182875000Y-81190000D01*
X182875000Y-81190000D02*
X176995000Y-75310000D01*
%TO.N,/PORTS/PortC2_LED*%
X179197500Y-97350000D02*
X177155000Y-95307500D01*
X182937500Y-97350000D02*
X179197500Y-97350000D01*
%TO.N,/PORTS/PortC5_LED*%
X182077500Y-107850000D02*
X177155000Y-102927500D01*
X182937500Y-107850000D02*
X182077500Y-107850000D01*
%TO.N,/PORTS/PortC6_LED*%
X179850000Y-110850000D02*
X179850000Y-108162500D01*
X182937500Y-111350000D02*
X180350000Y-111350000D01*
X179850000Y-108162500D02*
X177155000Y-105467500D01*
X180350000Y-111350000D02*
X179850000Y-110850000D01*
%TO.N,/PORTS/PortC1_LED*%
X178237500Y-93850000D02*
X177155000Y-92767500D01*
X182937500Y-93850000D02*
X178237500Y-93850000D01*
%TO.N,/PORTS/PortC7_LED*%
X182937500Y-114850000D02*
X180943503Y-114850000D01*
X179150000Y-113650000D02*
X179150000Y-110002500D01*
X180300000Y-114800000D02*
X179150000Y-113650000D01*
X180893503Y-114800000D02*
X180300000Y-114800000D01*
X179150000Y-110002500D02*
X177155000Y-108007500D01*
X180943503Y-114850000D02*
X180893503Y-114800000D01*
%TO.N,/PORTS/PortC0_LED*%
X177277500Y-90350000D02*
X177155000Y-90227500D01*
X182937500Y-90350000D02*
X177277500Y-90350000D01*
%TO.N,/PORTS/PortC3_LED*%
X182937500Y-100850000D02*
X180157500Y-100850000D01*
X180157500Y-100850000D02*
X177155000Y-97847500D01*
%TO.N,/PORTS/PortC4_LED*%
X181117500Y-104350000D02*
X177155000Y-100387500D01*
X182937500Y-104350000D02*
X181117500Y-104350000D01*
%TO.N,Net-(J10-Pin_1)*%
X110500000Y-103350000D02*
X113875000Y-103350000D01*
X113875000Y-103350000D02*
X114000000Y-103475000D01*
%TO.N,Net-(J12-Pin_1)*%
X118500000Y-115775000D02*
X114000000Y-111275000D01*
X114000000Y-111275000D02*
X114000000Y-105525000D01*
%TO.N,Net-(J13-Pin_3)*%
X93250000Y-86500000D02*
X88968090Y-86500000D01*
X85138090Y-90330000D02*
X81750000Y-90330000D01*
X88968090Y-86500000D02*
X85138090Y-90330000D01*
%TO.N,Net-(J13-Pin_16)*%
X85675000Y-123515000D02*
X85650000Y-123490000D01*
X85675000Y-125740000D02*
X85675000Y-123515000D01*
X81890000Y-123490000D02*
X81750000Y-123350000D01*
X85650000Y-123490000D02*
X81890000Y-123490000D01*
D42*
%TO.N,PortB0*%
X124305000Y-62570000D02*
X124250000Y-62625000D01*
X131232500Y-62570000D02*
X124305000Y-62570000D01*
%TO.N,PortB7*%
X131232500Y-80350000D02*
X124305000Y-80350000D01*
X124305000Y-80350000D02*
X124250000Y-80405000D01*
%TO.N,PortB4*%
X131232500Y-72730000D02*
X124305000Y-72730000D01*
X124305000Y-72730000D02*
X124250000Y-72785000D01*
%TO.N,PortB5*%
X124305000Y-75270000D02*
X124250000Y-75325000D01*
X131232500Y-75270000D02*
X124305000Y-75270000D01*
%TO.N,PortB2*%
X131232500Y-67650000D02*
X124305000Y-67650000D01*
X124305000Y-67650000D02*
X124250000Y-67705000D01*
%TO.N,PortB1*%
X131232500Y-65110000D02*
X124305000Y-65110000D01*
X124305000Y-65110000D02*
X124250000Y-65165000D01*
%TO.N,PortB3*%
X131232500Y-70190000D02*
X124305000Y-70190000D01*
X124305000Y-70190000D02*
X124250000Y-70245000D01*
D40*
%TO.N,PortB6*%
X121715000Y-124736701D02*
X120951701Y-125500000D01*
D42*
X124305000Y-77810000D02*
X124250000Y-77865000D01*
D40*
X122750000Y-121500000D02*
X122750000Y-122918299D01*
X121715000Y-123953299D02*
X121715000Y-124736701D01*
X120951701Y-125500000D02*
X119290000Y-125500000D01*
D42*
X131232500Y-77810000D02*
X124305000Y-77810000D01*
D40*
X119290000Y-125500000D02*
X118000000Y-126790000D01*
X122750000Y-122918299D02*
X121715000Y-123953299D01*
D42*
%TO.N,PortD4*%
X129000000Y-105750000D02*
X124000000Y-100750000D01*
X131232500Y-105750000D02*
X129000000Y-105750000D01*
%TO.N,PortD3*%
X129000000Y-103210000D02*
X124000000Y-98210000D01*
X131232500Y-103210000D02*
X129000000Y-103210000D01*
D40*
X135732500Y-103210000D02*
X131232500Y-103210000D01*
D42*
%TO.N,PortD5*%
X129000000Y-108290000D02*
X124000000Y-103290000D01*
X131232500Y-108290000D02*
X129000000Y-108290000D01*
%TO.N,PortD6*%
X131232500Y-110830000D02*
X129000000Y-110830000D01*
X129000000Y-110830000D02*
X124000000Y-105830000D01*
%TO.N,PortD1*%
X131232500Y-98130000D02*
X129000000Y-98130000D01*
D40*
X134862500Y-98130000D02*
X131232500Y-98130000D01*
D42*
X110500000Y-100810000D02*
X116320000Y-100810000D01*
X116320000Y-100810000D02*
X124000000Y-93130000D01*
D40*
X135732500Y-99000000D02*
X134862500Y-98130000D01*
D42*
X129000000Y-98130000D02*
X124000000Y-93130000D01*
%TO.N,PortD7*%
X132000000Y-113500000D02*
X129130000Y-113500000D01*
X146472500Y-110830000D02*
X144972500Y-112330000D01*
X133170000Y-112330000D02*
X132000000Y-113500000D01*
X144972500Y-112330000D02*
X133170000Y-112330000D01*
X129130000Y-113500000D02*
X124000000Y-108370000D01*
%TO.N,PortD0*%
X116320000Y-98270000D02*
X124000000Y-90590000D01*
D40*
X135282500Y-95590000D02*
X131232500Y-95590000D01*
D42*
X129000000Y-95590000D02*
X124000000Y-90590000D01*
X110500000Y-98270000D02*
X116320000Y-98270000D01*
X131232500Y-95590000D02*
X129000000Y-95590000D01*
%TO.N,PortD2*%
X129000000Y-100670000D02*
X124000000Y-95670000D01*
X131232500Y-100670000D02*
X129000000Y-100670000D01*
D41*
%TO.N,/Buttons/Button1*%
X93525000Y-35000000D02*
X93275000Y-34750000D01*
X92740000Y-64250000D02*
X91800000Y-63310000D01*
X96275000Y-35000000D02*
X93525000Y-35000000D01*
X91800000Y-63310000D02*
X91800000Y-39275000D01*
X91800000Y-39275000D02*
X86775000Y-34250000D01*
%TO.N,/Buttons/Button3*%
X88510000Y-63400000D02*
X88510000Y-52985000D01*
X87660000Y-64250000D02*
X88510000Y-63400000D01*
X96525000Y-51250000D02*
X93275000Y-51250000D01*
X88510000Y-52985000D02*
X86775000Y-51250000D01*
%TO.N,/Buttons/Button2*%
X96525000Y-43250000D02*
X93750000Y-43250000D01*
X93750000Y-43250000D02*
X93250000Y-42750000D01*
X90200000Y-64250000D02*
X90200000Y-46200000D01*
X93525000Y-43250000D02*
X93275000Y-43000000D01*
X90200000Y-46200000D02*
X86750000Y-42750000D01*
%TO.N,/Buttons/Button8*%
X74960000Y-60460000D02*
X74250000Y-59750000D01*
X74960000Y-64250000D02*
X74960000Y-60460000D01*
X77275000Y-59750000D02*
X74250000Y-59750000D01*
%TO.N,/Buttons/Button6*%
X81412500Y-46887500D02*
X77275000Y-42750000D01*
X77275000Y-42750000D02*
X74250000Y-42750000D01*
X80040000Y-64250000D02*
X81412500Y-62877500D01*
X81412500Y-62877500D02*
X81412500Y-46887500D01*
%TO.N,/Buttons/Button7*%
X77500000Y-64250000D02*
X78437500Y-63312500D01*
X78437500Y-52437500D02*
X77250000Y-51250000D01*
X77250000Y-51250000D02*
X74250000Y-51250000D01*
X78437500Y-63312500D02*
X78437500Y-52437500D01*
%TO.N,/Buttons/Button5*%
X82580000Y-64250000D02*
X82580000Y-39080000D01*
X78000000Y-34500000D02*
X77262500Y-34500000D01*
X82580000Y-39080000D02*
X78000000Y-34500000D01*
X77262500Y-34500000D02*
X74500000Y-34500000D01*
X74500000Y-34500000D02*
X74250000Y-34250000D01*
%TO.N,/Buttons/Button4*%
X93525000Y-59750000D02*
X93275000Y-59500000D01*
X96275000Y-59750000D02*
X93525000Y-59750000D01*
X85120000Y-64250000D02*
X85120000Y-61155000D01*
X85120000Y-61155000D02*
X86775000Y-59500000D01*
%TO.N,Net-(Q17-D)*%
X87725000Y-123515000D02*
X87700000Y-123490000D01*
X87700000Y-123490000D02*
X85700000Y-121490000D01*
X85700000Y-121490000D02*
X85700000Y-120490000D01*
X87725000Y-125740000D02*
X87725000Y-123515000D01*
%TO.N,Net-(J14-Pin_2)*%
X87575000Y-121440000D02*
X89800000Y-121440000D01*
X89950000Y-127755000D02*
X89950000Y-121290000D01*
X88715000Y-128990000D02*
X89950000Y-127755000D01*
X89800000Y-121440000D02*
X89950000Y-121290000D01*
%TO.N,/PORTS/PortA_Leds_VCC*%
X167800000Y-54100000D02*
X164300000Y-57600000D01*
X164300000Y-75350000D02*
X164300000Y-77850000D01*
X164300000Y-65350000D02*
X164300000Y-67850000D01*
X174010000Y-54100000D02*
X167800000Y-54100000D01*
X164300000Y-60100000D02*
X164300000Y-62600000D01*
X164300000Y-70350000D02*
X164300000Y-72850000D01*
X164300000Y-57600000D02*
X164300000Y-60100000D01*
X164300000Y-62600000D02*
X164300000Y-65350000D01*
X164300000Y-67850000D02*
X164300000Y-70350000D01*
X164300000Y-72850000D02*
X164300000Y-75350000D01*
%TO.N,Reset*%
X130910000Y-83212500D02*
X131232500Y-82890000D01*
X128750000Y-83212500D02*
X130910000Y-83212500D01*
D42*
%TO.N,/LCD/D4*%
X98200000Y-79880000D02*
X98200000Y-88050000D01*
X83300000Y-109100000D02*
X81750000Y-110650000D01*
X83300000Y-102950000D02*
X83300000Y-109100000D01*
X98200000Y-88050000D02*
X83300000Y-102950000D01*
X107750000Y-70330000D02*
X98200000Y-79880000D01*
%TO.N,/LCD/D6*%
X107750000Y-75410000D02*
X100700000Y-82460000D01*
X100700000Y-89300000D02*
X85700000Y-104300000D01*
X100700000Y-82460000D02*
X100700000Y-89300000D01*
X85700000Y-111780000D02*
X81750000Y-115730000D01*
X85700000Y-104300000D02*
X85700000Y-111780000D01*
%TO.N,/LCD/En*%
X86300000Y-97950000D02*
X81750000Y-97950000D01*
X107750000Y-67790000D02*
X97000000Y-78540000D01*
X97000000Y-78540000D02*
X97000000Y-87250000D01*
X97000000Y-87250000D02*
X86300000Y-97950000D01*
%TO.N,/LCD/RS*%
X80200000Y-83700000D02*
X80200000Y-91320000D01*
X107750000Y-62710000D02*
X87970000Y-82490000D01*
X80200000Y-91320000D02*
X81750000Y-92870000D01*
X87970000Y-82490000D02*
X81410000Y-82490000D01*
X81410000Y-82490000D02*
X80200000Y-83700000D01*
%TO.N,/LCD/D7*%
X87250000Y-104447056D02*
X87250000Y-112770000D01*
X109300000Y-79500000D02*
X109300000Y-82397056D01*
X87250000Y-112770000D02*
X81750000Y-118270000D01*
X109300000Y-82397056D02*
X87250000Y-104447056D01*
X107750000Y-77950000D02*
X109300000Y-79500000D01*
%TO.N,/LCD/RW*%
X107750000Y-65250000D02*
X94760000Y-78240000D01*
X86590000Y-95410000D02*
X81750000Y-95410000D01*
X94760000Y-87240000D02*
X86590000Y-95410000D01*
X94760000Y-78240000D02*
X94760000Y-87240000D01*
%TO.N,/LCD/D5*%
X99500000Y-81120000D02*
X99500000Y-88500000D01*
X84500000Y-103500000D02*
X84500000Y-110440000D01*
X99500000Y-88500000D02*
X84500000Y-103500000D01*
X84500000Y-110440000D02*
X81750000Y-113190000D01*
X107750000Y-72870000D02*
X99500000Y-81120000D01*
%TD*%
M02*
