%TF.GenerationSoftware,KiCad,Pcbnew,8.0.5*%
%TF.CreationDate,2024-11-01T12:18:04+01:00*%
%TF.ProjectId,ATmega644,41546d65-6761-4363-9434-2e6b69636164,rev?*%
%TF.SameCoordinates,Original*%
%TF.FileFunction,Soldermask,Bot*%
%TF.FilePolarity,Negative*%
%FSLAX46Y46*%
G04 Gerber Fmt 4.6, Leading zero omitted, Abs format (unit mm)*
G04 Created by KiCad (PCBNEW 8.0.5) date 2024-11-01 12:18:04*
%MOMM*%
%LPD*%
G01*
G04 APERTURE LIST*
G04 Aperture macros list*
%AMRoundRect*
0 Rectangle with rounded corners*
0 $1 Rounding radius*
0 $2 $3 $4 $5 $6 $7 $8 $9 X,Y pos of 4 corners*
0 Add a 4 corners polygon primitive as box body*
4,1,4,$2,$3,$4,$5,$6,$7,$8,$9,$2,$3,0*
0 Add four circle primitives for the rounded corners*
1,1,$1+$1,$2,$3*
1,1,$1+$1,$4,$5*
1,1,$1+$1,$6,$7*
1,1,$1+$1,$8,$9*
0 Add four rect primitives between the rounded corners*
20,1,$1+$1,$2,$3,$4,$5,0*
20,1,$1+$1,$4,$5,$6,$7,0*
20,1,$1+$1,$6,$7,$8,$9,0*
20,1,$1+$1,$8,$9,$2,$3,0*%
G04 Aperture macros list end*
%ADD10C,2.000000*%
%ADD11R,1.700000X1.700000*%
%ADD12O,1.700000X1.700000*%
%ADD13R,2.032000X2.032000*%
%ADD14C,2.032000*%
%ADD15C,3.200000*%
%ADD16R,3.000000X3.000000*%
%ADD17C,3.000000*%
%ADD18R,2.000000X2.000000*%
%ADD19C,1.620000*%
%ADD20R,1.600000X1.600000*%
%ADD21C,1.600000*%
%ADD22O,1.600000X1.600000*%
%ADD23RoundRect,0.250000X0.600000X-0.600000X0.600000X0.600000X-0.600000X0.600000X-0.600000X-0.600000X0*%
%ADD24C,1.700000*%
%ADD25C,1.500000*%
%ADD26R,1.500000X1.500000*%
G04 APERTURE END LIST*
D10*
%TO.C,SW2*%
X86775000Y-29750000D03*
X93275000Y-29750000D03*
X86775000Y-34250000D03*
X93275000Y-34250000D03*
%TD*%
D11*
%TO.C,J12*%
X118500000Y-115775000D03*
D12*
X118500000Y-113235000D03*
%TD*%
D11*
%TO.C,J17*%
X154080000Y-50710000D03*
D12*
X154080000Y-53250000D03*
X151540000Y-50710000D03*
X151540000Y-53250000D03*
X149000000Y-50710000D03*
X149000000Y-53250000D03*
X146460000Y-50710000D03*
X146460000Y-53250000D03*
X143920000Y-50710000D03*
X143920000Y-53250000D03*
%TD*%
D11*
%TO.C,J20*%
X92740000Y-64250000D03*
D12*
X90200000Y-64250000D03*
X87660000Y-64250000D03*
X85120000Y-64250000D03*
X82580000Y-64250000D03*
X80040000Y-64250000D03*
X77500000Y-64250000D03*
X74960000Y-64250000D03*
%TD*%
D10*
%TO.C,SW5*%
X86775000Y-55000000D03*
X93275000Y-55000000D03*
X86775000Y-59500000D03*
X93275000Y-59500000D03*
%TD*%
%TO.C,SW1*%
X103250000Y-112500000D03*
X109750000Y-112500000D03*
X103250000Y-117000000D03*
X109750000Y-117000000D03*
%TD*%
D13*
%TO.C,BAR1*%
X169375000Y-57530000D03*
D14*
X169375000Y-60070000D03*
X169375000Y-62610000D03*
X169375000Y-65150000D03*
X169375000Y-67690000D03*
X169375000Y-70230000D03*
X169375000Y-72770000D03*
X169375000Y-75310000D03*
X169375000Y-77850000D03*
X169375000Y-80390000D03*
X176995000Y-80390000D03*
X176995000Y-77850000D03*
X176995000Y-75310000D03*
X176995000Y-72770000D03*
X176995000Y-70230000D03*
X176995000Y-67690000D03*
X176995000Y-65150000D03*
X176995000Y-62610000D03*
X176995000Y-60070000D03*
X176995000Y-57530000D03*
%TD*%
D15*
%TO.C,H2*%
X61750000Y-32000000D03*
%TD*%
D16*
%TO.C,J21*%
X155000000Y-44080000D03*
D17*
X155000000Y-39000000D03*
%TD*%
D11*
%TO.C,J5*%
X156750000Y-108370000D03*
D12*
X156750000Y-105830000D03*
X156750000Y-103290000D03*
X156750000Y-100750000D03*
X156750000Y-98210000D03*
X156750000Y-95670000D03*
X156750000Y-93130000D03*
X156750000Y-90590000D03*
%TD*%
D13*
%TO.C,BAR2*%
X169535000Y-90227500D03*
D14*
X169535000Y-92767500D03*
X169535000Y-95307500D03*
X169535000Y-97847500D03*
X169535000Y-100387500D03*
X169535000Y-102927500D03*
X169535000Y-105467500D03*
X169535000Y-108007500D03*
X169535000Y-110547500D03*
X169535000Y-113087500D03*
X177155000Y-113087500D03*
X177155000Y-110547500D03*
X177155000Y-108007500D03*
X177155000Y-105467500D03*
X177155000Y-102927500D03*
X177155000Y-100387500D03*
X177155000Y-97847500D03*
X177155000Y-95307500D03*
X177155000Y-92767500D03*
X177155000Y-90227500D03*
%TD*%
D11*
%TO.C,J6*%
X169710000Y-121250000D03*
D12*
X172250000Y-121250000D03*
X169710000Y-123790000D03*
X172250000Y-123790000D03*
X169710000Y-126330000D03*
X172250000Y-126330000D03*
X169710000Y-128870000D03*
X172250000Y-128870000D03*
X169710000Y-131410000D03*
X172250000Y-131410000D03*
%TD*%
D11*
%TO.C,J18*%
X138330000Y-50710000D03*
D12*
X138330000Y-53250000D03*
X135790000Y-50710000D03*
X135790000Y-53250000D03*
X133250000Y-50710000D03*
X133250000Y-53250000D03*
X130710000Y-50710000D03*
X130710000Y-53250000D03*
X128170000Y-50710000D03*
X128170000Y-53250000D03*
%TD*%
D18*
%TO.C,C1*%
X145867677Y-33000000D03*
D10*
X140867677Y-33000000D03*
%TD*%
%TO.C,SW6*%
X67750000Y-29750000D03*
X74250000Y-29750000D03*
X67750000Y-34250000D03*
X74250000Y-34250000D03*
%TD*%
D15*
%TO.C,H3*%
X186250000Y-133000000D03*
%TD*%
D19*
%TO.C,RV1*%
X88250000Y-89000000D03*
X93250000Y-86500000D03*
X88250000Y-84000000D03*
%TD*%
D11*
%TO.C,J10*%
X110500000Y-103350000D03*
D12*
X110500000Y-100810000D03*
X110500000Y-98270000D03*
X110500000Y-95730000D03*
X110500000Y-93190000D03*
X110500000Y-90650000D03*
%TD*%
D11*
%TO.C,J13*%
X81750000Y-85250000D03*
D12*
X81750000Y-87790000D03*
X81750000Y-90330000D03*
X81750000Y-92870000D03*
X81750000Y-95410000D03*
X81750000Y-97950000D03*
X81750000Y-100490000D03*
X81750000Y-103030000D03*
X81750000Y-105570000D03*
X81750000Y-108110000D03*
X81750000Y-110650000D03*
X81750000Y-113190000D03*
X81750000Y-115730000D03*
X81750000Y-118270000D03*
X81750000Y-120810000D03*
X81750000Y-123350000D03*
%TD*%
D10*
%TO.C,SW3*%
X86750000Y-38250000D03*
X93250000Y-38250000D03*
X86750000Y-42750000D03*
X93250000Y-42750000D03*
%TD*%
%TO.C,SW7*%
X67750000Y-38250000D03*
X74250000Y-38250000D03*
X67750000Y-42750000D03*
X74250000Y-42750000D03*
%TD*%
D11*
%TO.C,J4*%
X156750000Y-62510000D03*
D12*
X156750000Y-65050000D03*
X156750000Y-67590000D03*
X156750000Y-70130000D03*
X156750000Y-72670000D03*
X156750000Y-75210000D03*
X156750000Y-77750000D03*
X156750000Y-80290000D03*
%TD*%
D20*
%TO.C,C2*%
X125750000Y-32750000D03*
D21*
X128250000Y-32750000D03*
%TD*%
D15*
%TO.C,H1*%
X186250000Y-32000000D03*
%TD*%
D11*
%TO.C,J19*%
X107750000Y-62710000D03*
D12*
X107750000Y-65250000D03*
X107750000Y-67790000D03*
X107750000Y-70330000D03*
X107750000Y-72870000D03*
X107750000Y-75410000D03*
X107750000Y-77950000D03*
X107750000Y-80490000D03*
%TD*%
D11*
%TO.C,J2*%
X176837500Y-86750000D03*
D12*
X174297500Y-86750000D03*
%TD*%
D20*
%TO.C,U2*%
X131232500Y-62570000D03*
D22*
X131232500Y-65110000D03*
X131232500Y-67650000D03*
X131232500Y-70190000D03*
X131232500Y-72730000D03*
X131232500Y-75270000D03*
X131232500Y-77810000D03*
X131232500Y-80350000D03*
X131232500Y-82890000D03*
X131232500Y-85430000D03*
X131232500Y-87970000D03*
X131232500Y-90510000D03*
X131232500Y-93050000D03*
X131232500Y-95590000D03*
X131232500Y-98130000D03*
X131232500Y-100670000D03*
X131232500Y-103210000D03*
X131232500Y-105750000D03*
X131232500Y-108290000D03*
X131232500Y-110830000D03*
X146472500Y-110830000D03*
X146472500Y-108290000D03*
X146472500Y-105750000D03*
X146472500Y-103210000D03*
X146472500Y-100670000D03*
X146472500Y-98130000D03*
X146472500Y-95590000D03*
X146472500Y-93050000D03*
X146472500Y-90510000D03*
X146472500Y-87970000D03*
X146472500Y-85430000D03*
X146472500Y-82890000D03*
X146472500Y-80350000D03*
X146472500Y-77810000D03*
X146472500Y-75270000D03*
X146472500Y-72730000D03*
X146472500Y-70190000D03*
X146472500Y-67650000D03*
X146472500Y-65110000D03*
X146472500Y-62570000D03*
%TD*%
D23*
%TO.C,J3*%
X118000000Y-126790000D03*
D24*
X118000000Y-124250000D03*
X120540000Y-126790000D03*
X120540000Y-124250000D03*
X123080000Y-126790000D03*
X123080000Y-124250000D03*
%TD*%
D10*
%TO.C,SW8*%
X67750000Y-46750000D03*
X74250000Y-46750000D03*
X67750000Y-51250000D03*
X74250000Y-51250000D03*
%TD*%
D23*
%TO.C,J7*%
X135670000Y-126750000D03*
D24*
X135670000Y-124210000D03*
X138210000Y-126750000D03*
X138210000Y-124210000D03*
X140750000Y-126750000D03*
X140750000Y-124210000D03*
%TD*%
D10*
%TO.C,SW9*%
X67750000Y-55250000D03*
X74250000Y-55250000D03*
X67750000Y-59750000D03*
X74250000Y-59750000D03*
%TD*%
D25*
%TO.C,Y1*%
X117500000Y-86950000D03*
X117500000Y-82070000D03*
%TD*%
D23*
%TO.C,J8*%
X153170000Y-126750000D03*
D24*
X153170000Y-124210000D03*
X155710000Y-126750000D03*
X155710000Y-124210000D03*
X158250000Y-126750000D03*
X158250000Y-124210000D03*
%TD*%
D11*
%TO.C,J14*%
X86175000Y-128990000D03*
D12*
X88715000Y-128990000D03*
%TD*%
D26*
%TO.C,U1*%
X134897500Y-40442500D03*
D25*
X132357500Y-40442500D03*
X129817500Y-40442500D03*
%TD*%
D11*
%TO.C,J1*%
X176550000Y-54100000D03*
D12*
X174010000Y-54100000D03*
%TD*%
D15*
%TO.C,H4*%
X61750000Y-133000000D03*
%TD*%
D10*
%TO.C,SW4*%
X86775000Y-46750000D03*
X93275000Y-46750000D03*
X86775000Y-51250000D03*
X93275000Y-51250000D03*
%TD*%
D11*
%TO.C,J15*%
X124250000Y-62625000D03*
D12*
X124250000Y-65165000D03*
X124250000Y-67705000D03*
X124250000Y-70245000D03*
X124250000Y-72785000D03*
X124250000Y-75325000D03*
X124250000Y-77865000D03*
X124250000Y-80405000D03*
%TD*%
D11*
%TO.C,J11*%
X118500000Y-105725000D03*
D12*
X118500000Y-108265000D03*
%TD*%
D11*
%TO.C,J16*%
X124000000Y-90590000D03*
D12*
X124000000Y-93130000D03*
X124000000Y-95670000D03*
X124000000Y-98210000D03*
X124000000Y-100750000D03*
X124000000Y-103290000D03*
X124000000Y-105830000D03*
X124000000Y-108370000D03*
%TD*%
M02*
