%TF.GenerationSoftware,KiCad,Pcbnew,8.0.5*%
%TF.CreationDate,2024-11-01T12:18:04+01:00*%
%TF.ProjectId,ATmega644,41546d65-6761-4363-9434-2e6b69636164,rev?*%
%TF.SameCoordinates,Original*%
%TF.FileFunction,Paste,Top*%
%TF.FilePolarity,Positive*%
%FSLAX46Y46*%
G04 Gerber Fmt 4.6, Leading zero omitted, Abs format (unit mm)*
G04 Created by KiCad (PCBNEW 8.0.5) date 2024-11-01 12:18:04*
%MOMM*%
%LPD*%
G01*
G04 APERTURE LIST*
G04 Aperture macros list*
%AMRoundRect*
0 Rectangle with rounded corners*
0 $1 Rounding radius*
0 $2 $3 $4 $5 $6 $7 $8 $9 X,Y pos of 4 corners*
0 Add a 4 corners polygon primitive as box body*
4,1,4,$2,$3,$4,$5,$6,$7,$8,$9,$2,$3,0*
0 Add four circle primitives for the rounded corners*
1,1,$1+$1,$2,$3*
1,1,$1+$1,$4,$5*
1,1,$1+$1,$6,$7*
1,1,$1+$1,$8,$9*
0 Add four rect primitives between the rounded corners*
20,1,$1+$1,$2,$3,$4,$5,0*
20,1,$1+$1,$4,$5,$6,$7,0*
20,1,$1+$1,$6,$7,$8,$9,0*
20,1,$1+$1,$8,$9,$2,$3,0*%
G04 Aperture macros list end*
%ADD10RoundRect,0.150000X0.587500X0.150000X-0.587500X0.150000X-0.587500X-0.150000X0.587500X-0.150000X0*%
%ADD11RoundRect,0.250001X-0.624999X0.462499X-0.624999X-0.462499X0.624999X-0.462499X0.624999X0.462499X0*%
%ADD12RoundRect,0.250001X0.462499X0.624999X-0.462499X0.624999X-0.462499X-0.624999X0.462499X-0.624999X0*%
%ADD13RoundRect,0.250000X-0.337500X-0.475000X0.337500X-0.475000X0.337500X0.475000X-0.337500X0.475000X0*%
%ADD14RoundRect,0.250001X-0.462499X-0.624999X0.462499X-0.624999X0.462499X0.624999X-0.462499X0.624999X0*%
%ADD15RoundRect,0.250000X0.475000X-0.337500X0.475000X0.337500X-0.475000X0.337500X-0.475000X-0.337500X0*%
%ADD16RoundRect,0.250000X0.450000X-0.325000X0.450000X0.325000X-0.450000X0.325000X-0.450000X-0.325000X0*%
%ADD17R,2.400000X0.740000*%
%ADD18RoundRect,0.250000X-0.475000X0.337500X-0.475000X-0.337500X0.475000X-0.337500X0.475000X0.337500X0*%
%ADD19RoundRect,0.250000X-0.325000X-0.450000X0.325000X-0.450000X0.325000X0.450000X-0.325000X0.450000X0*%
%ADD20RoundRect,0.250000X-1.500000X-0.900000X1.500000X-0.900000X1.500000X0.900000X-1.500000X0.900000X0*%
G04 APERTURE END LIST*
D10*
%TO.C,Q7*%
X184750000Y-79500000D03*
X184750000Y-77600000D03*
X182875000Y-78550000D03*
%TD*%
D11*
%TO.C,R24*%
X140500000Y-97512500D03*
X140500000Y-100487500D03*
%TD*%
D10*
%TO.C,Q8*%
X184750000Y-83000000D03*
X184750000Y-81100000D03*
X182875000Y-82050000D03*
%TD*%
D12*
%TO.C,R29*%
X99500000Y-51250000D03*
X96525000Y-51250000D03*
%TD*%
D13*
%TO.C,R11*%
X164300000Y-77850000D03*
X166375000Y-77850000D03*
%TD*%
%TO.C,R20*%
X164662500Y-108050000D03*
X166737500Y-108050000D03*
%TD*%
D10*
%TO.C,Q2*%
X184750000Y-62050000D03*
X184750000Y-60150000D03*
X182875000Y-61100000D03*
%TD*%
D14*
%TO.C,R32*%
X77275000Y-42750000D03*
X80250000Y-42750000D03*
%TD*%
D15*
%TO.C,R1*%
X128750000Y-85287500D03*
X128750000Y-83212500D03*
%TD*%
D13*
%TO.C,R21*%
X164662500Y-110550000D03*
X166737500Y-110550000D03*
%TD*%
D16*
%TO.C,R26*%
X89950000Y-121290000D03*
X89950000Y-119240000D03*
%TD*%
D13*
%TO.C,R15*%
X164662500Y-95550000D03*
X166737500Y-95550000D03*
%TD*%
D14*
%TO.C,R33*%
X77250000Y-51250000D03*
X80225000Y-51250000D03*
%TD*%
%TO.C,R34*%
X77275000Y-59750000D03*
X80250000Y-59750000D03*
%TD*%
D10*
%TO.C,Q1*%
X184750000Y-58550000D03*
X184750000Y-56650000D03*
X182875000Y-57600000D03*
%TD*%
%TO.C,Q4*%
X184750000Y-69000000D03*
X184750000Y-67100000D03*
X182875000Y-68050000D03*
%TD*%
D17*
%TO.C,J9*%
X180300000Y-122710000D03*
X184200000Y-122710000D03*
X180300000Y-123980000D03*
X184200000Y-123980000D03*
X180300000Y-125250000D03*
X184200000Y-125250000D03*
X180300000Y-126520000D03*
X184200000Y-126520000D03*
X180300000Y-127790000D03*
X184200000Y-127790000D03*
%TD*%
D10*
%TO.C,Q11*%
X184812500Y-94800000D03*
X184812500Y-92900000D03*
X182937500Y-93850000D03*
%TD*%
D13*
%TO.C,C11*%
X182512500Y-54100000D03*
X184587500Y-54100000D03*
%TD*%
D18*
%TO.C,C8*%
X113500000Y-83037500D03*
X113500000Y-80962500D03*
%TD*%
D19*
%TO.C,R25*%
X85675000Y-125740000D03*
X87725000Y-125740000D03*
%TD*%
D12*
%TO.C,R28*%
X99500000Y-43250000D03*
X96525000Y-43250000D03*
%TD*%
D18*
%TO.C,C4*%
X158000000Y-50925000D03*
X158000000Y-53000000D03*
%TD*%
D14*
%TO.C,R31*%
X77262500Y-34500000D03*
X80237500Y-34500000D03*
%TD*%
D18*
%TO.C,C9*%
X149500000Y-83175000D03*
X149500000Y-85250000D03*
%TD*%
D13*
%TO.C,R17*%
X164662500Y-100550000D03*
X166737500Y-100550000D03*
%TD*%
D10*
%TO.C,Q14*%
X184812500Y-112300000D03*
X184812500Y-110400000D03*
X182937500Y-111350000D03*
%TD*%
D13*
%TO.C,C10*%
X182662500Y-86800000D03*
X184737500Y-86800000D03*
%TD*%
%TO.C,R14*%
X164662500Y-93050000D03*
X166737500Y-93050000D03*
%TD*%
D18*
%TO.C,C3*%
X128750000Y-87250000D03*
X128750000Y-89325000D03*
%TD*%
D10*
%TO.C,Q16*%
X184750000Y-115750000D03*
X184750000Y-113850000D03*
X182875000Y-114800000D03*
%TD*%
%TO.C,Q6*%
X184750000Y-76000000D03*
X184750000Y-74100000D03*
X182875000Y-75050000D03*
%TD*%
D13*
%TO.C,R10*%
X164300000Y-75350000D03*
X166375000Y-75350000D03*
%TD*%
D10*
%TO.C,Q13*%
X184812500Y-98300000D03*
X184812500Y-96400000D03*
X182937500Y-97350000D03*
%TD*%
D13*
%TO.C,R8*%
X164300000Y-70350000D03*
X166375000Y-70350000D03*
%TD*%
D16*
%TO.C,C13*%
X114000000Y-105525000D03*
X114000000Y-103475000D03*
%TD*%
D12*
%TO.C,R30*%
X99250000Y-59750000D03*
X96275000Y-59750000D03*
%TD*%
D10*
%TO.C,Q12*%
X184812500Y-108800000D03*
X184812500Y-106900000D03*
X182937500Y-107850000D03*
%TD*%
%TO.C,Q9*%
X184812500Y-91300000D03*
X184812500Y-89400000D03*
X182937500Y-90350000D03*
%TD*%
%TO.C,Q5*%
X184750000Y-72500000D03*
X184750000Y-70600000D03*
X182875000Y-71550000D03*
%TD*%
D13*
%TO.C,R18*%
X164662500Y-103050000D03*
X166737500Y-103050000D03*
%TD*%
%TO.C,R4*%
X164300000Y-60100000D03*
X166375000Y-60100000D03*
%TD*%
%TO.C,R7*%
X164300000Y-67850000D03*
X166375000Y-67850000D03*
%TD*%
D10*
%TO.C,Q10*%
X184812500Y-105300000D03*
X184812500Y-103400000D03*
X182937500Y-104350000D03*
%TD*%
D19*
%TO.C,R2*%
X85650000Y-123490000D03*
X87700000Y-123490000D03*
%TD*%
D13*
%TO.C,R16*%
X164662500Y-98050000D03*
X166737500Y-98050000D03*
%TD*%
%TO.C,R9*%
X164300000Y-72850000D03*
X166375000Y-72850000D03*
%TD*%
D11*
%TO.C,R23*%
X143000000Y-97512500D03*
X143000000Y-100487500D03*
%TD*%
D10*
%TO.C,Q17*%
X87575000Y-121440000D03*
X87575000Y-119540000D03*
X85700000Y-120490000D03*
%TD*%
D15*
%TO.C,C7*%
X113500000Y-85212500D03*
X113500000Y-87287500D03*
%TD*%
D13*
%TO.C,C6*%
X148675000Y-88000000D03*
X150750000Y-88000000D03*
%TD*%
%TO.C,R6*%
X164300000Y-65350000D03*
X166375000Y-65350000D03*
%TD*%
%TO.C,R19*%
X164662500Y-105550000D03*
X166737500Y-105550000D03*
%TD*%
%TO.C,R22*%
X164662500Y-113300000D03*
X166737500Y-113300000D03*
%TD*%
%TO.C,R3*%
X164300000Y-57600000D03*
X166375000Y-57600000D03*
%TD*%
D10*
%TO.C,Q3*%
X184750000Y-65550000D03*
X184750000Y-63650000D03*
X182875000Y-64600000D03*
%TD*%
D20*
%TO.C,D1*%
X142050000Y-44250000D03*
X147450000Y-44250000D03*
%TD*%
D13*
%TO.C,R13*%
X164662500Y-90300000D03*
X166737500Y-90300000D03*
%TD*%
D10*
%TO.C,Q15*%
X184812500Y-101800000D03*
X184812500Y-99900000D03*
X182937500Y-100850000D03*
%TD*%
D18*
%TO.C,C12*%
X124000000Y-50925000D03*
X124000000Y-53000000D03*
%TD*%
D13*
%TO.C,R12*%
X164300000Y-80350000D03*
X166375000Y-80350000D03*
%TD*%
%TO.C,R5*%
X164300000Y-62600000D03*
X166375000Y-62600000D03*
%TD*%
D15*
%TO.C,C5*%
X85700000Y-87490000D03*
X85700000Y-85415000D03*
%TD*%
D12*
%TO.C,R27*%
X99250000Y-34500000D03*
X96275000Y-34500000D03*
%TD*%
M02*
