M48
; DRILL file {KiCad 8.0.5} date 2024-11-01T12:18:10+0100
; FORMAT={-:-/ absolute / inch / decimal}
; #@! TF.CreationDate,2024-11-01T12:18:10+01:00
; #@! TF.GenerationSoftware,Kicad,Pcbnew,8.0.5
; #@! TF.FileFunction,Plated,1,2,PTH
FMAT,2
INCH
; #@! TA.AperFunction,Plated,PTH,ViaDrill
T1C0.0118
; #@! TA.AperFunction,Plated,PTH,ViaDrill
T2C0.0197
; #@! TA.AperFunction,Plated,PTH,ComponentDrill
T3C0.0315
; #@! TA.AperFunction,Plated,PTH,ComponentDrill
T4C0.0354
; #@! TA.AperFunction,Plated,PTH,ComponentDrill
T5C0.0360
; #@! TA.AperFunction,Plated,PTH,ComponentDrill
T6C0.0394
; #@! TA.AperFunction,Plated,PTH,ComponentDrill
T7C0.0433
; #@! TA.AperFunction,Plated,PTH,ComponentDrill
T8C0.0598
%
G90
G05
T1
X5.9941Y-4.3602
X7.0079Y-4.952
X7.1654Y-5.0787
X7.1752Y-4.8819
X7.1752Y-4.9311
X7.2441Y-4.7835
X7.3228Y-2.126
X7.3425Y-2.2441
X7.3425Y-2.3819
X7.3425Y-2.5197
X7.3425Y-2.6575
X7.3425Y-2.7953
X7.3425Y-2.9331
X7.3425Y-3.0709
X7.3425Y-3.189
X7.3425Y-3.4252
X7.3425Y-3.5236
X7.3425Y-3.6614
X7.3425Y-3.7992
X7.3425Y-3.937
X7.3425Y-4.0748
X7.3425Y-4.2126
X7.3425Y-4.3504
X7.3425Y-4.4882
T2
X3.1594Y-2.126
X3.1988Y-1.7618
X3.3543Y-4.6748
X3.6516Y-3.1594
X4.0748Y-2.0049
X4.5472Y-3.3169
X4.8327Y-4.7835
X5.3261Y-3.7634
X5.3438Y-3.8976
X5.3438Y-4.0634
X5.4528Y-3.9764
X5.6102Y-3.4449
X5.9236Y-4.3323
X6.2904Y-3.9665
X6.7815Y-4.6358
X6.8799Y-4.7441
X6.8799Y-4.8031
X6.8799Y-4.8819
X7.1063Y-2.313
X7.1063Y-4.5571
X7.1161Y-2.4508
X7.1161Y-2.5886
X7.1161Y-2.7165
X7.1161Y-2.8543
X7.1555Y-4.1732
X7.1653Y-2.9922
X7.1654Y-3.9075
X7.1654Y-4.0453
X7.1683Y-3.7598
X7.1752Y-4.311
X7.185Y-3.2697
X7.1881Y-3.1319
X7.1949Y-3.622
X7.2047Y-4.4488
T3
X4.626Y-3.2311
X4.626Y-3.4232
X4.9508Y-1.2894
X5.0492Y-1.2894
X5.1666Y-2.4634
X5.1666Y-2.5634
X5.1666Y-2.6634
X5.1666Y-2.7634
X5.1666Y-2.8634
X5.1666Y-2.9634
X5.1666Y-3.0634
X5.1666Y-3.1634
X5.1666Y-3.2634
X5.1666Y-3.3634
X5.1666Y-3.4634
X5.1666Y-3.5634
X5.1666Y-3.6634
X5.1666Y-3.7634
X5.1666Y-3.8634
X5.1666Y-3.9634
X5.1666Y-4.0634
X5.1666Y-4.1634
X5.1666Y-4.2634
X5.1666Y-4.3634
X5.7666Y-2.4634
X5.7666Y-2.5634
X5.7666Y-2.6634
X5.7666Y-2.7634
X5.7666Y-2.8634
X5.7666Y-2.9634
X5.7666Y-3.0634
X5.7666Y-3.1634
X5.7666Y-3.2634
X5.7666Y-3.3634
X5.7666Y-3.4634
X5.7666Y-3.5634
X5.7666Y-3.6634
X5.7666Y-3.7634
X5.7666Y-3.8634
X5.7666Y-3.9634
X5.7666Y-4.0634
X5.7666Y-4.1634
X5.7666Y-4.2634
X5.7666Y-4.3634
T4
X3.4744Y-3.3071
X3.4744Y-3.5039
X3.6713Y-3.4055
T5
X6.6683Y-2.265
X6.6683Y-2.365
X6.6683Y-2.465
X6.6683Y-2.565
X6.6683Y-2.665
X6.6683Y-2.765
X6.6683Y-2.865
X6.6683Y-2.965
X6.6683Y-3.065
X6.6683Y-3.165
X6.6746Y-3.5523
X6.6746Y-3.6523
X6.6746Y-3.7523
X6.6746Y-3.8523
X6.6746Y-3.9523
X6.6746Y-4.0523
X6.6746Y-4.1523
X6.6746Y-4.2523
X6.6746Y-4.3523
X6.6746Y-4.4523
X6.9683Y-2.265
X6.9683Y-2.365
X6.9683Y-2.465
X6.9683Y-2.565
X6.9683Y-2.665
X6.9683Y-2.765
X6.9683Y-2.865
X6.9683Y-2.965
X6.9683Y-3.065
X6.9683Y-3.165
X6.9746Y-3.5523
X6.9746Y-3.6523
X6.9746Y-3.7523
X6.9746Y-3.8523
X6.9746Y-3.9523
X6.9746Y-4.0523
X6.9746Y-4.1523
X6.9746Y-4.2523
X6.9746Y-4.3523
X6.9746Y-4.4523
T6
X2.9512Y-2.5295
X3.0512Y-2.5295
X3.1512Y-2.5295
X3.2185Y-3.3563
X3.2185Y-3.4563
X3.2185Y-3.5563
X3.2185Y-3.6563
X3.2185Y-3.7563
X3.2185Y-3.8563
X3.2185Y-3.9563
X3.2185Y-4.0563
X3.2185Y-4.1563
X3.2185Y-4.2563
X3.2185Y-4.3563
X3.2185Y-4.4563
X3.2185Y-4.5563
X3.2185Y-4.6563
X3.2185Y-4.7563
X3.2185Y-4.8563
X3.2512Y-2.5295
X3.3512Y-2.5295
X3.3927Y-5.0783
X3.4512Y-2.5295
X3.4927Y-5.0783
X3.5512Y-2.5295
X3.6512Y-2.5295
X4.2421Y-2.4689
X4.2421Y-2.5689
X4.2421Y-2.6689
X4.2421Y-2.7689
X4.2421Y-2.8689
X4.2421Y-2.9689
X4.2421Y-3.0689
X4.2421Y-3.1689
X4.3504Y-3.5689
X4.3504Y-3.6689
X4.3504Y-3.7689
X4.3504Y-3.8689
X4.3504Y-3.9689
X4.3504Y-4.0689
X4.6457Y-4.8917
X4.6457Y-4.9917
X4.6654Y-4.1624
X4.6654Y-4.2624
X4.6654Y-4.4581
X4.6654Y-4.5581
X4.7457Y-4.8917
X4.7457Y-4.9917
X4.8457Y-4.8917
X4.8457Y-4.9917
X4.8819Y-3.5665
X4.8819Y-3.6665
X4.8819Y-3.7665
X4.8819Y-3.8665
X4.8819Y-3.9665
X4.8819Y-4.0665
X4.8819Y-4.1665
X4.8819Y-4.2665
X4.8917Y-2.4656
X4.8917Y-2.5656
X4.8917Y-2.6656
X4.8917Y-2.7656
X4.8917Y-2.8656
X4.8917Y-2.9656
X4.8917Y-3.0656
X4.8917Y-3.1656
X5.0461Y-1.9965
X5.0461Y-2.0965
X5.1109Y-1.5922
X5.1461Y-1.9965
X5.1461Y-2.0965
X5.2109Y-1.5922
X5.2461Y-1.9965
X5.2461Y-2.0965
X5.3109Y-1.5922
X5.3413Y-4.8902
X5.3413Y-4.9902
X5.3461Y-1.9965
X5.3461Y-2.0965
X5.4413Y-4.8902
X5.4413Y-4.9902
X5.4461Y-1.9965
X5.4461Y-2.0965
X5.5413Y-4.8902
X5.5413Y-4.9902
X5.546Y-1.2992
X5.6661Y-1.9965
X5.6661Y-2.0965
X5.7428Y-1.2992
X5.7661Y-1.9965
X5.7661Y-2.0965
X5.8661Y-1.9965
X5.8661Y-2.0965
X5.9661Y-1.9965
X5.9661Y-2.0965
X6.0303Y-4.8902
X6.0303Y-4.9902
X6.0661Y-1.9965
X6.0661Y-2.0965
X6.1303Y-4.8902
X6.1303Y-4.9902
X6.1713Y-2.461
X6.1713Y-2.561
X6.1713Y-2.661
X6.1713Y-2.761
X6.1713Y-2.861
X6.1713Y-2.961
X6.1713Y-3.061
X6.1713Y-3.161
X6.1713Y-3.5665
X6.1713Y-3.6665
X6.1713Y-3.7665
X6.1713Y-3.8665
X6.1713Y-3.9665
X6.1713Y-4.0665
X6.1713Y-4.1665
X6.1713Y-4.2665
X6.2303Y-4.8902
X6.2303Y-4.9902
X6.6815Y-4.7736
X6.6815Y-4.8736
X6.6815Y-4.9736
X6.6815Y-5.0736
X6.6815Y-5.1736
X6.7815Y-4.7736
X6.7815Y-4.8736
X6.7815Y-4.9736
X6.7815Y-5.0736
X6.7815Y-5.1736
X6.8508Y-2.1299
X6.8621Y-3.4154
X6.9508Y-2.1299
X6.9621Y-3.4154
T7
X2.6673Y-1.1713
X2.6673Y-1.3484
X2.6673Y-1.5059
X2.6673Y-1.6831
X2.6673Y-1.8406
X2.6673Y-2.0177
X2.6673Y-2.1752
X2.6673Y-2.3524
X2.9232Y-1.1713
X2.9232Y-1.3484
X2.9232Y-1.5059
X2.9232Y-1.6831
X2.9232Y-1.8406
X2.9232Y-2.0177
X2.9232Y-2.1752
X2.9232Y-2.3524
X3.4154Y-1.5059
X3.4154Y-1.6831
X3.4163Y-1.1713
X3.4163Y-1.3484
X3.4163Y-1.8406
X3.4163Y-2.0177
X3.4163Y-2.1654
X3.4163Y-2.3425
X3.6713Y-1.5059
X3.6713Y-1.6831
X3.6722Y-1.1713
X3.6722Y-1.3484
X3.6722Y-1.8406
X3.6722Y-2.0177
X3.6722Y-2.1654
X3.6722Y-2.3425
X4.065Y-4.4291
X4.065Y-4.6063
X4.3209Y-4.4291
X4.3209Y-4.6063
T8
X6.1024Y-1.5354
X6.1024Y-1.7354
M30
